<svg width="500" height="576" viewBox="0 0 500 576" fill="none" xmlns="http://www.w3.org/2000/svg">
<g opacity="0.1">
<mask id="path-1-inside-1_495_2551" fill="white">
<path d="M281.153 301.876C285.592 301.304 287.882 298.157 288.025 295.296C288.312 292.435 287.309 289.575 288.455 286.857C290.03 283.138 295.613 280.134 295.899 276.129C296.472 270.121 284.876 266.259 282.728 260.395C282.012 258.392 282.299 256.247 281.297 254.387C280.151 252.528 276.572 250.811 273.709 251.955C272.707 252.385 271.991 253.1 271.418 253.672C269.128 256.676 268.412 260.252 269.7 263.398C272.42 270.407 267.124 277.273 269.271 284.711C270.559 289.431 268.412 303.592 281.153 301.876Z"/>
<path d="M307.066 279.132C308.068 276.987 308.498 274.841 307.639 272.553C305.778 267.689 298.763 263.97 294.181 260.823C290.316 258.106 286.021 255.388 283.874 251.669C283.444 250.954 283.158 250.239 282.872 249.38C281.869 246.52 282.299 243.373 280.295 240.655C278.147 237.508 271.132 234.79 265.692 236.507C265.549 236.507 265.549 236.507 265.405 236.65C263.544 237.365 262.256 238.366 261.254 239.511C257.531 243.516 255.814 248.522 257.245 253.528C257.388 254.101 257.388 254.53 257.245 255.102C256.816 258.535 253.523 261.968 253.38 265.401C253.093 272.553 256.243 279.418 256.672 286.856C256.816 290.718 257.675 295.01 258.247 299.73C258.534 302.448 255.241 306.596 256.1 309.313C257.961 315.178 265.835 318.039 272.564 319.04C274.854 319.326 277.288 319.326 279.865 319.04C287.596 318.182 293.179 313.319 293.322 306.739C293.466 302.162 292.607 298.013 294.468 294.151C295.184 292.435 296.472 290.862 298.047 289.288C301.483 285.712 305.348 282.708 307.066 279.132Z"/>
<path d="M318.233 281.993C320.094 279.132 321.382 275.985 320.38 272.409C318.376 264.828 307.209 259.536 300.624 255.388C295.04 251.812 288.455 247.95 284.733 242.657C284.017 241.656 283.444 240.512 283.015 239.51C281.297 235.219 282.012 230.785 279.006 226.78C275.856 222.346 265.405 218.627 257.531 221.059C257.388 221.059 257.245 221.059 257.245 221.202C254.382 222.203 252.521 223.633 250.946 225.207C245.792 230.499 242.929 237.365 244.933 244.517C245.076 245.232 244.933 245.947 244.647 246.662C243.072 250.811 236.343 255.388 236.486 259.536C236.773 269.406 244.36 278.56 244.074 288.573C243.931 294.866 245.506 301.16 246.365 308.169C246.794 312.031 239.922 318.754 241.068 322.473C243.931 331.198 257.675 334.488 267.41 335.918C270.989 336.491 274.854 336.347 278.72 336.061C289.743 334.917 298.476 328.48 298.763 317.896C298.906 311.745 297.904 306.166 300.481 301.017C301.626 298.871 303.201 296.726 305.348 294.723C309.929 290.289 315.226 286.57 318.233 281.993Z"/>
<path d="M329.4 284.855C332.12 281.279 334.267 276.988 333.265 272.41C330.975 262.255 315.799 255.246 307.353 249.953C300.051 245.376 291.032 240.656 286.021 233.647C285.019 232.36 284.303 230.929 283.587 229.499C281.154 223.92 282.299 218.056 278.147 212.763C273.852 207.185 260.108 202.465 249.658 205.325C249.514 205.325 249.371 205.468 249.228 205.468C245.363 206.613 242.786 208.615 240.781 210.618C234.053 217.341 230.187 225.923 232.764 235.077C233.051 235.936 232.621 236.937 232.192 237.938C229.471 242.944 219.45 248.38 219.736 253.386C220.595 265.831 232.335 277.417 231.619 290.147C231.189 298.872 233.623 307.169 234.768 316.609C235.341 321.616 224.89 330.77 226.465 335.633C230.187 347.219 249.944 350.938 262.542 352.798C267.41 353.513 272.564 353.513 277.718 352.941C292.034 351.511 304.489 343.5 304.203 329.054C304.06 321.186 303.344 314.321 306.637 308.027C308.068 305.309 310.073 302.734 312.936 300.16C318.376 294.867 325.105 290.433 329.4 284.855Z"/>
<path d="M340.566 287.715C344.146 283.424 347.152 278.131 346.007 272.267C343.573 259.536 324.103 250.811 313.795 244.517C304.776 239.082 293.466 233.217 287.023 224.778C285.735 223.205 284.733 221.488 283.874 219.629C280.581 212.763 282.156 205.468 277.002 198.888C271.705 192.022 254.668 186.301 241.497 189.877C241.354 189.877 241.211 190.02 240.924 190.02C236.057 191.45 232.907 193.882 230.473 196.313C222.17 204.323 217.302 214.765 220.452 226.065C220.738 227.21 220.309 228.211 219.593 229.498C215.871 235.363 202.27 241.799 202.843 247.664C204.275 262.826 220.309 276.701 219.02 292.149C218.161 303.449 221.597 313.748 222.886 325.334C223.602 331.485 209.572 343.071 211.433 349.078C216.014 363.525 241.783 367.53 257.388 369.962C263.544 370.963 269.987 370.82 276.429 370.248C294.181 368.532 310.073 358.805 309.5 340.496C309.214 330.912 308.641 322.759 312.506 315.321C314.224 312.031 316.658 309.028 320.094 305.881C326.823 299.444 334.983 294.295 340.566 287.715Z"/>
<path d="M351.733 290.576C356.315 285.427 360.037 279.133 358.892 272.267C356.172 256.819 332.693 246.52 320.381 239.225C309.643 232.788 295.9 226.066 288.026 215.91C286.594 214.05 285.305 212.048 284.303 209.902C280.295 201.749 282.299 193.024 276 185.014C269.701 177.004 249.228 170.138 233.48 174.429C233.337 174.429 233.051 174.572 232.907 174.572C227.038 176.288 223.315 179.149 220.309 182.01C210.574 191.307 204.561 203.752 208.283 217.054C208.569 218.342 208.14 219.629 206.995 221.059C202.127 227.639 185.091 235.077 185.95 241.8C188.097 259.68 208.14 275.843 206.565 293.866C205.277 307.598 209.572 319.899 211.29 333.917C212.149 341.212 194.539 355.229 196.687 362.381C202.27 379.689 233.91 384.123 252.378 386.841C259.822 387.985 267.553 387.842 275.284 387.127C296.329 385.124 315.656 373.824 314.797 351.653C314.368 340.353 313.938 330.913 318.519 322.188C320.524 318.469 323.387 314.893 327.396 311.317C335.413 304.022 344.862 298.157 351.733 290.576Z"/>
<path d="M362.9 293.437C368.34 287.572 373.065 280.277 371.776 272.124C368.913 254.101 341.282 242.086 327.109 233.79C314.511 226.495 298.62 218.628 289.314 206.898C287.596 204.753 286.021 202.321 284.876 199.89C280.151 190.306 282.442 180.15 275.141 170.996C267.839 161.698 243.931 153.831 225.606 158.695C225.32 158.695 225.177 158.838 224.89 158.838C218.018 160.84 213.723 164.13 210.144 167.42C198.834 178.148 191.819 192.309 196.114 207.614C196.544 209.044 195.828 210.618 194.539 212.191C188.526 219.629 168.197 228.068 169.056 235.506C171.776 255.961 196.114 274.556 193.967 295.296C192.249 311.46 197.546 325.906 199.407 342.07C200.409 350.509 179.078 366.958 181.798 375.255C188.24 395.423 226.035 400.286 247.367 403.433C256.1 404.721 265.262 404.578 274.138 403.862C298.476 401.574 321.239 388.7 320.237 362.667C319.665 349.651 319.235 338.923 324.532 329.053C326.823 324.762 330.116 320.614 334.697 316.609C343.859 308.456 354.883 302.019 362.9 293.437Z"/>
<path d="M374.067 296.297C380.366 289.717 385.949 281.278 384.518 272.123C381.511 251.383 349.729 237.937 333.551 228.497C319.235 220.201 301.053 211.332 290.316 198.03C288.312 195.598 286.594 192.88 285.162 190.019C279.722 179.149 282.442 167.562 273.995 157.121C265.692 146.536 238.347 137.667 217.445 143.246C217.159 143.389 216.873 143.389 216.586 143.532C208.856 145.678 203.845 149.54 199.836 153.259C187.095 165.274 178.934 181.294 183.802 198.745C184.231 200.461 183.516 202.178 181.941 203.894C174.926 212.333 151.017 221.488 152.163 229.927C155.455 253.099 183.945 273.983 181.368 297.441C179.221 316.036 185.52 332.486 187.667 351.081C188.813 360.664 163.902 379.688 166.909 388.843C174.353 411.872 218.018 417.021 242.213 420.74C252.234 422.314 262.685 422.171 272.993 421.169C300.624 418.595 326.966 404.005 325.534 374.11C324.961 359.377 324.532 347.362 330.545 336.348C333.122 331.484 336.844 326.907 341.998 322.33C352.306 313.032 364.761 305.881 374.067 296.297Z"/>
<path d="M385.09 299.158C392.392 291.863 398.691 282.423 397.259 271.981C393.967 248.666 358.176 233.504 339.994 223.062C323.959 213.907 303.344 204.038 291.175 189.162C288.884 186.301 286.88 183.44 285.305 180.293C279.149 168.135 282.156 155.119 272.85 143.389C263.401 131.66 232.907 121.648 209.285 127.798C208.999 127.941 208.713 127.941 208.426 128.084C199.693 130.516 194.11 134.807 189.529 138.955C175.212 152.258 166.05 170.138 171.49 189.734C172.063 191.593 171.061 193.453 169.343 195.455C161.182 204.753 133.838 214.909 135.269 224.063C139.278 249.81 171.919 273.125 168.77 299.158C166.193 320.185 173.351 338.78 175.785 359.52C177.073 370.248 148.584 391.704 151.877 402.003C160.18 427.893 209.858 433.471 237.059 437.619C248.369 439.336 260.108 439.193 271.705 438.048C302.628 435.188 332.406 419.024 330.831 385.267C330.116 368.961 329.829 355.515 336.415 343.214C339.278 337.922 343.43 332.772 349.299 327.766C360.896 317.61 374.64 309.743 385.09 299.158Z"/>
<path d="M396.257 302.019C404.418 294.009 411.576 283.424 410.001 271.981C406.565 245.948 366.622 229.213 346.58 217.77C328.827 207.614 305.921 196.743 292.32 180.294C289.743 177.147 287.596 173.857 285.735 170.424C278.863 156.978 282.299 142.531 271.848 129.515C261.397 116.498 227.467 105.485 201.411 112.35C201.125 112.493 200.695 112.493 200.409 112.636C190.674 115.354 184.375 120.074 179.364 124.652C163.473 139.385 153.308 159.124 159.321 180.58C159.894 182.582 158.892 184.728 156.887 186.873C147.582 197.029 116.945 208.043 118.519 218.056C123.101 246.52 159.894 272.124 156.315 300.875C153.308 324.476 161.469 344.931 164.189 368.103C165.62 379.975 133.552 403.863 137.274 415.306C146.436 444.056 202.127 449.921 232.192 454.498C244.79 456.358 257.818 456.215 270.703 455.07C305.062 451.923 338.133 434.187 336.415 396.425C335.556 378.402 335.413 363.669 342.714 350.223C345.864 344.359 350.445 338.78 356.887 333.202C369.343 322.188 384.518 313.605 396.257 302.019Z"/>
<path d="M407.424 304.879C416.587 296.154 424.461 284.568 422.886 271.837C419.307 243.23 375.069 224.778 353.165 212.19C333.695 201.176 308.355 189.304 293.466 171.138C290.602 167.705 288.168 164.13 286.307 160.267C278.72 145.535 282.442 129.657 270.989 115.353C259.536 101.05 222.17 89.0344 193.537 96.4724C193.108 96.6154 192.821 96.6154 192.392 96.7584C181.655 99.7623 174.783 104.912 169.343 109.918C152.02 125.938 140.71 147.537 147.295 171.138C147.868 173.427 146.723 175.716 144.432 178.147C134.124 189.161 99.9081 201.176 101.769 212.047C106.923 243.23 148.011 271.122 143.859 302.591C140.423 328.624 149.586 351.224 152.449 376.685C154.024 389.701 118.376 416.02 122.385 428.607C132.549 460.219 194.11 466.513 227.038 471.519C241.068 473.665 255.384 473.379 269.414 472.091C307.066 468.658 343.716 449.205 341.569 407.724C340.567 387.985 340.423 371.964 348.584 357.374C352.02 351.081 357.03 344.93 364.045 338.779C377.789 326.621 394.396 317.467 407.424 304.879Z"/>
<path d="M418.591 307.741C428.612 298.3 437.488 285.57 435.77 271.838C431.905 240.656 383.659 220.487 359.75 206.899C338.562 194.883 310.932 182.01 294.468 162.271C291.461 158.552 288.741 154.69 286.594 150.399C278.29 134.235 282.442 117.071 269.843 101.479C257.388 86.0313 216.586 72.8717 185.377 81.0249C184.947 81.1679 184.518 81.311 184.088 81.311C172.349 84.6009 164.904 90.1794 158.891 95.6148C139.994 112.922 127.682 136.381 134.84 162.128C135.556 164.559 134.267 167.134 131.69 169.709C120.237 181.581 82.5852 194.454 84.5895 206.183C90.4592 239.941 135.556 270.265 130.974 304.308C127.109 332.772 137.131 357.375 140.423 385.125C141.998 399.285 102.914 428.036 107.209 441.768C118.233 476.24 185.806 482.963 221.74 488.398C237.059 490.687 252.664 490.544 267.982 489.113C308.927 485.394 349.013 464.368 346.723 418.882C345.72 397.426 345.577 380.261 354.31 364.241C358.032 357.375 363.473 350.795 371.06 344.216C386.236 331.199 404.274 321.329 418.591 307.741Z"/>
<path d="M429.758 310.601C440.638 300.445 450.373 286.713 448.512 271.694C444.503 237.794 392.105 216.052 366.336 201.462C343.43 188.589 313.365 174.714 295.613 153.258C292.32 149.253 289.457 145.105 287.023 140.528C278.004 123.077 282.442 104.339 268.841 87.6036C255.241 70.8682 211.289 56.7074 177.36 65.4327C176.93 65.5757 176.501 65.7188 176.071 65.7188C163.473 69.2947 155.312 75.3023 148.727 81.31C128.398 100.048 114.94 125.223 122.671 153.115C123.387 155.833 121.955 158.408 119.235 161.268C106.637 173.999 65.6918 187.874 67.8393 200.318C74.2816 236.793 123.673 269.405 118.519 306.166C114.224 337.063 125.248 363.811 128.684 393.849C130.402 409.154 87.7391 440.479 92.4635 455.212C104.489 492.545 177.932 499.554 216.73 505.562C233.337 508.137 250.23 507.85 266.98 506.277C311.218 502.272 354.883 479.672 352.163 430.324C351.017 407.151 351.017 388.699 360.466 371.535C364.618 364.097 370.345 357.088 378.505 349.936C394.826 335.775 414.153 325.19 429.758 310.601Z"/>
<path d="M440.924 313.462C452.807 302.591 463.258 287.715 461.397 271.695C457.102 235.22 400.695 211.762 372.922 196.171C348.297 182.296 315.942 167.42 296.615 144.534C293.036 140.243 289.887 135.665 287.31 130.802C277.574 112.064 282.442 91.8957 267.696 73.8729C253.093 55.9931 205.706 40.6879 169.199 50.1285C168.77 50.2715 168.197 50.4146 167.768 50.5576C154.167 54.2766 145.434 60.7133 138.276 67.2931C116.372 87.3184 101.912 114.496 110.216 144.248C110.932 147.109 109.5 149.969 106.494 152.973C92.893 166.562 48.369 181.295 50.8028 194.74C57.961 233.79 111.361 268.834 105.778 308.313C101.053 341.784 113.079 370.391 116.801 402.718C118.663 419.167 72.4207 452.925 77.4314 468.802C90.3161 508.996 169.772 516.434 211.576 522.727C229.471 525.445 247.653 525.159 265.692 523.586C313.222 519.294 360.323 494.978 357.46 441.911C356.171 417.022 356.171 397.283 366.336 378.974C370.774 371.107 376.93 363.383 385.806 355.801C403.272 340.353 424.031 329.053 440.924 313.462Z"/>
<path d="M452.091 316.322C464.833 304.736 476.143 288.859 474.138 271.551C469.7 232.359 409.142 207.327 379.364 190.735C353.022 176.002 318.376 160.124 297.617 135.522C293.752 130.945 290.459 126.081 287.596 120.789C277.002 100.764 282.299 79.1648 266.551 59.8546C250.946 40.6874 200.123 24.5241 161.039 34.5368C160.466 34.6798 160.037 34.8229 159.464 34.9659C144.861 38.971 135.556 45.8368 127.968 52.8457C104.489 74.1584 89.0275 103.195 97.9036 135.093C98.7626 138.097 97.0448 141.243 93.8952 144.39C79.1493 158.837 31.3325 174.571 33.9095 188.732C41.7835 230.499 99.1922 267.832 93.1793 309.886C88.0254 345.788 100.91 376.542 104.919 411.157C106.923 428.751 56.9589 464.939 62.3991 481.961C76.1428 525.015 161.612 532.882 206.279 539.605C225.463 542.466 245.076 542.18 264.26 540.464C315.227 535.886 365.62 509.996 362.471 452.924C361.039 426.462 361.182 405.292 372.062 385.696C376.787 377.257 383.372 369.104 392.821 360.95C411.719 344.787 433.909 332.915 452.091 316.322Z"/>
<path d="M463.258 319.183C477.002 306.739 489.028 289.861 487.023 271.552C482.299 229.784 417.732 203.036 386.093 185.443C358.033 169.708 320.953 152.83 298.906 126.654C294.754 121.79 291.175 116.641 288.312 111.063C277.002 89.6068 282.728 66.7207 265.835 46.1232C249.228 25.6687 194.969 8.50404 153.308 19.0889C152.736 19.2319 152.163 19.375 151.733 19.5181C136.128 23.8092 126.25 31.1042 118.09 38.5422C93.1793 61.2853 76.5724 92.0385 86.0212 126.082C86.8802 129.371 85.1621 132.661 81.583 135.951C65.6918 151.399 14.4393 167.849 17.3025 182.868C25.7492 227.353 87.4527 266.974 80.8672 311.745C75.2838 350.08 89.1707 382.836 93.4657 419.739C95.6131 438.477 42.0697 477.098 47.9395 495.121C62.6853 541.036 154.024 549.189 201.698 556.484C222.17 559.631 243.072 559.345 263.544 557.485C317.804 552.622 371.633 525.159 368.34 464.224C366.765 436.046 367.052 413.589 378.505 392.848C383.516 383.837 390.531 375.255 400.552 366.672C420.166 349.365 443.788 336.777 463.258 319.183Z"/>
<path d="M262.113 574.507C319.665 569.214 377.073 540.178 373.494 475.381C371.06 432.47 372.778 402.289 407.71 372.108C428.755 353.942 453.809 340.639 474.425 322.044C489.027 308.885 501.912 291.005 499.765 271.409C494.897 227.067 426.035 198.602 392.535 180.007C357.173 160.268 308.354 138.812 288.455 101.05C276.429 78.3067 282.442 53.9902 264.546 32.1053C246.651 10.2204 187.811 -8.37458 143.43 3.92672C126.823 8.50395 116.229 16.228 107.639 24.0951C81.1535 48.1255 63.5443 80.7383 73.4226 116.784C78.5765 135.808 -3.59946 157.55 0.122796 176.86C9.14212 223.92 74.9974 265.973 67.9823 313.462C61.9694 354.228 76.7154 389.129 81.2966 428.322C83.5873 448.204 26.4649 489.399 32.6209 508.423C48.2258 557.199 145.72 565.781 196.114 573.506C218.018 576.795 240.352 576.509 262.113 574.507Z"/>
</mask>
<path d="M281.153 301.876C285.592 301.304 287.882 298.157 288.025 295.296C288.312 292.435 287.309 289.575 288.455 286.857C290.03 283.138 295.613 280.134 295.899 276.129C296.472 270.121 284.876 266.259 282.728 260.395C282.012 258.392 282.299 256.247 281.297 254.387C280.151 252.528 276.572 250.811 273.709 251.955C272.707 252.385 271.991 253.1 271.418 253.672C269.128 256.676 268.412 260.252 269.7 263.398C272.42 270.407 267.124 277.273 269.271 284.711C270.559 289.431 268.412 303.592 281.153 301.876Z" stroke="#E50000" stroke-miterlimit="10" mask="url(#path-1-inside-1_495_2551)"/>
<path d="M307.066 279.132C308.068 276.987 308.498 274.841 307.639 272.553C305.778 267.689 298.763 263.97 294.181 260.823C290.316 258.106 286.021 255.388 283.874 251.669C283.444 250.954 283.158 250.239 282.872 249.38C281.869 246.52 282.299 243.373 280.295 240.655C278.147 237.508 271.132 234.79 265.692 236.507C265.549 236.507 265.549 236.507 265.405 236.65C263.544 237.365 262.256 238.366 261.254 239.511C257.531 243.516 255.814 248.522 257.245 253.528C257.388 254.101 257.388 254.53 257.245 255.102C256.816 258.535 253.523 261.968 253.38 265.401C253.093 272.553 256.243 279.418 256.672 286.856C256.816 290.718 257.675 295.01 258.247 299.73C258.534 302.448 255.241 306.596 256.1 309.313C257.961 315.178 265.835 318.039 272.564 319.04C274.854 319.326 277.288 319.326 279.865 319.04C287.596 318.182 293.179 313.319 293.322 306.739C293.466 302.162 292.607 298.013 294.468 294.151C295.184 292.435 296.472 290.862 298.047 289.288C301.483 285.712 305.348 282.708 307.066 279.132Z" stroke="#E50000" stroke-miterlimit="10" mask="url(#path-1-inside-1_495_2551)"/>
<path d="M318.233 281.993C320.094 279.132 321.382 275.985 320.38 272.409C318.376 264.828 307.209 259.536 300.624 255.388C295.04 251.812 288.455 247.95 284.733 242.657C284.017 241.656 283.444 240.512 283.015 239.51C281.297 235.219 282.012 230.785 279.006 226.78C275.856 222.346 265.405 218.627 257.531 221.059C257.388 221.059 257.245 221.059 257.245 221.202C254.382 222.203 252.521 223.633 250.946 225.207C245.792 230.499 242.929 237.365 244.933 244.517C245.076 245.232 244.933 245.947 244.647 246.662C243.072 250.811 236.343 255.388 236.486 259.536C236.773 269.406 244.36 278.56 244.074 288.573C243.931 294.866 245.506 301.16 246.365 308.169C246.794 312.031 239.922 318.754 241.068 322.473C243.931 331.198 257.675 334.488 267.41 335.918C270.989 336.491 274.854 336.347 278.72 336.061C289.743 334.917 298.476 328.48 298.763 317.896C298.906 311.745 297.904 306.166 300.481 301.017C301.626 298.871 303.201 296.726 305.348 294.723C309.929 290.289 315.226 286.57 318.233 281.993Z" stroke="#E50000" stroke-miterlimit="10" mask="url(#path-1-inside-1_495_2551)"/>
<path d="M329.4 284.855C332.12 281.279 334.267 276.988 333.265 272.41C330.975 262.255 315.799 255.246 307.353 249.953C300.051 245.376 291.032 240.656 286.021 233.647C285.019 232.36 284.303 230.929 283.587 229.499C281.154 223.92 282.299 218.056 278.147 212.763C273.852 207.185 260.108 202.465 249.658 205.325C249.514 205.325 249.371 205.468 249.228 205.468C245.363 206.613 242.786 208.615 240.781 210.618C234.053 217.341 230.187 225.923 232.764 235.077C233.051 235.936 232.621 236.937 232.192 237.938C229.471 242.944 219.45 248.38 219.736 253.386C220.595 265.831 232.335 277.417 231.619 290.147C231.189 298.872 233.623 307.169 234.768 316.609C235.341 321.616 224.89 330.77 226.465 335.633C230.187 347.219 249.944 350.938 262.542 352.798C267.41 353.513 272.564 353.513 277.718 352.941C292.034 351.511 304.489 343.5 304.203 329.054C304.06 321.186 303.344 314.321 306.637 308.027C308.068 305.309 310.073 302.734 312.936 300.16C318.376 294.867 325.105 290.433 329.4 284.855Z" stroke="#E50000" stroke-miterlimit="10" mask="url(#path-1-inside-1_495_2551)"/>
<path d="M340.566 287.715C344.146 283.424 347.152 278.131 346.007 272.267C343.573 259.536 324.103 250.811 313.795 244.517C304.776 239.082 293.466 233.217 287.023 224.778C285.735 223.205 284.733 221.488 283.874 219.629C280.581 212.763 282.156 205.468 277.002 198.888C271.705 192.022 254.668 186.301 241.497 189.877C241.354 189.877 241.211 190.02 240.924 190.02C236.057 191.45 232.907 193.882 230.473 196.313C222.17 204.323 217.302 214.765 220.452 226.065C220.738 227.21 220.309 228.211 219.593 229.498C215.871 235.363 202.27 241.799 202.843 247.664C204.275 262.826 220.309 276.701 219.02 292.149C218.161 303.449 221.597 313.748 222.886 325.334C223.602 331.485 209.572 343.071 211.433 349.078C216.014 363.525 241.783 367.53 257.388 369.962C263.544 370.963 269.987 370.82 276.429 370.248C294.181 368.532 310.073 358.805 309.5 340.496C309.214 330.912 308.641 322.759 312.506 315.321C314.224 312.031 316.658 309.028 320.094 305.881C326.823 299.444 334.983 294.295 340.566 287.715Z" stroke="#E50000" stroke-miterlimit="10" mask="url(#path-1-inside-1_495_2551)"/>
<path d="M351.733 290.576C356.315 285.427 360.037 279.133 358.892 272.267C356.172 256.819 332.693 246.52 320.381 239.225C309.643 232.788 295.9 226.066 288.026 215.91C286.594 214.05 285.305 212.048 284.303 209.902C280.295 201.749 282.299 193.024 276 185.014C269.701 177.004 249.228 170.138 233.48 174.429C233.337 174.429 233.051 174.572 232.907 174.572C227.038 176.288 223.315 179.149 220.309 182.01C210.574 191.307 204.561 203.752 208.283 217.054C208.569 218.342 208.14 219.629 206.995 221.059C202.127 227.639 185.091 235.077 185.95 241.8C188.097 259.68 208.14 275.843 206.565 293.866C205.277 307.598 209.572 319.899 211.29 333.917C212.149 341.212 194.539 355.229 196.687 362.381C202.27 379.689 233.91 384.123 252.378 386.841C259.822 387.985 267.553 387.842 275.284 387.127C296.329 385.124 315.656 373.824 314.797 351.653C314.368 340.353 313.938 330.913 318.519 322.188C320.524 318.469 323.387 314.893 327.396 311.317C335.413 304.022 344.862 298.157 351.733 290.576Z" stroke="#E50000" stroke-miterlimit="10" mask="url(#path-1-inside-1_495_2551)"/>
<path d="M362.9 293.437C368.34 287.572 373.065 280.277 371.776 272.124C368.913 254.101 341.282 242.086 327.109 233.79C314.511 226.495 298.62 218.628 289.314 206.898C287.596 204.753 286.021 202.321 284.876 199.89C280.151 190.306 282.442 180.15 275.141 170.996C267.839 161.698 243.931 153.831 225.606 158.695C225.32 158.695 225.177 158.838 224.89 158.838C218.018 160.84 213.723 164.13 210.144 167.42C198.834 178.148 191.819 192.309 196.114 207.614C196.544 209.044 195.828 210.618 194.539 212.191C188.526 219.629 168.197 228.068 169.056 235.506C171.776 255.961 196.114 274.556 193.967 295.296C192.249 311.46 197.546 325.906 199.407 342.07C200.409 350.509 179.078 366.958 181.798 375.255C188.24 395.423 226.035 400.286 247.367 403.433C256.1 404.721 265.262 404.578 274.138 403.862C298.476 401.574 321.239 388.7 320.237 362.667C319.665 349.651 319.235 338.923 324.532 329.053C326.823 324.762 330.116 320.614 334.697 316.609C343.859 308.456 354.883 302.019 362.9 293.437Z" stroke="#E50000" stroke-miterlimit="10" mask="url(#path-1-inside-1_495_2551)"/>
<path d="M374.067 296.297C380.366 289.717 385.949 281.278 384.518 272.123C381.511 251.383 349.729 237.937 333.551 228.497C319.235 220.201 301.053 211.332 290.316 198.03C288.312 195.598 286.594 192.88 285.162 190.019C279.722 179.149 282.442 167.562 273.995 157.121C265.692 146.536 238.347 137.667 217.445 143.246C217.159 143.389 216.873 143.389 216.586 143.532C208.856 145.678 203.845 149.54 199.836 153.259C187.095 165.274 178.934 181.294 183.802 198.745C184.231 200.461 183.516 202.178 181.941 203.894C174.926 212.333 151.017 221.488 152.163 229.927C155.455 253.099 183.945 273.983 181.368 297.441C179.221 316.036 185.52 332.486 187.667 351.081C188.813 360.664 163.902 379.688 166.909 388.843C174.353 411.872 218.018 417.021 242.213 420.74C252.234 422.314 262.685 422.171 272.993 421.169C300.624 418.595 326.966 404.005 325.534 374.11C324.961 359.377 324.532 347.362 330.545 336.348C333.122 331.484 336.844 326.907 341.998 322.33C352.306 313.032 364.761 305.881 374.067 296.297Z" stroke="#E50000" stroke-miterlimit="10" mask="url(#path-1-inside-1_495_2551)"/>
<path d="M385.09 299.158C392.392 291.863 398.691 282.423 397.259 271.981C393.967 248.666 358.176 233.504 339.994 223.062C323.959 213.907 303.344 204.038 291.175 189.162C288.884 186.301 286.88 183.44 285.305 180.293C279.149 168.135 282.156 155.119 272.85 143.389C263.401 131.66 232.907 121.648 209.285 127.798C208.999 127.941 208.713 127.941 208.426 128.084C199.693 130.516 194.11 134.807 189.529 138.955C175.212 152.258 166.05 170.138 171.49 189.734C172.063 191.593 171.061 193.453 169.343 195.455C161.182 204.753 133.838 214.909 135.269 224.063C139.278 249.81 171.919 273.125 168.77 299.158C166.193 320.185 173.351 338.78 175.785 359.52C177.073 370.248 148.584 391.704 151.877 402.003C160.18 427.893 209.858 433.471 237.059 437.619C248.369 439.336 260.108 439.193 271.705 438.048C302.628 435.188 332.406 419.024 330.831 385.267C330.116 368.961 329.829 355.515 336.415 343.214C339.278 337.922 343.43 332.772 349.299 327.766C360.896 317.61 374.64 309.743 385.09 299.158Z" stroke="#E50000" stroke-miterlimit="10" mask="url(#path-1-inside-1_495_2551)"/>
<path d="M396.257 302.019C404.418 294.009 411.576 283.424 410.001 271.981C406.565 245.948 366.622 229.213 346.58 217.77C328.827 207.614 305.921 196.743 292.32 180.294C289.743 177.147 287.596 173.857 285.735 170.424C278.863 156.978 282.299 142.531 271.848 129.515C261.397 116.498 227.467 105.485 201.411 112.35C201.125 112.493 200.695 112.493 200.409 112.636C190.674 115.354 184.375 120.074 179.364 124.652C163.473 139.385 153.308 159.124 159.321 180.58C159.894 182.582 158.892 184.728 156.887 186.873C147.582 197.029 116.945 208.043 118.519 218.056C123.101 246.52 159.894 272.124 156.315 300.875C153.308 324.476 161.469 344.931 164.189 368.103C165.62 379.975 133.552 403.863 137.274 415.306C146.436 444.056 202.127 449.921 232.192 454.498C244.79 456.358 257.818 456.215 270.703 455.07C305.062 451.923 338.133 434.187 336.415 396.425C335.556 378.402 335.413 363.669 342.714 350.223C345.864 344.359 350.445 338.78 356.887 333.202C369.343 322.188 384.518 313.605 396.257 302.019Z" stroke="#E50000" stroke-miterlimit="10" mask="url(#path-1-inside-1_495_2551)"/>
<path d="M407.424 304.879C416.587 296.154 424.461 284.568 422.886 271.837C419.307 243.23 375.069 224.778 353.165 212.19C333.695 201.176 308.355 189.304 293.466 171.138C290.602 167.705 288.168 164.13 286.307 160.267C278.72 145.535 282.442 129.657 270.989 115.353C259.536 101.05 222.17 89.0344 193.537 96.4724C193.108 96.6154 192.821 96.6154 192.392 96.7584C181.655 99.7623 174.783 104.912 169.343 109.918C152.02 125.938 140.71 147.537 147.295 171.138C147.868 173.427 146.723 175.716 144.432 178.147C134.124 189.161 99.9081 201.176 101.769 212.047C106.923 243.23 148.011 271.122 143.859 302.591C140.423 328.624 149.586 351.224 152.449 376.685C154.024 389.701 118.376 416.02 122.385 428.607C132.549 460.219 194.11 466.513 227.038 471.519C241.068 473.665 255.384 473.379 269.414 472.091C307.066 468.658 343.716 449.205 341.569 407.724C340.567 387.985 340.423 371.964 348.584 357.374C352.02 351.081 357.03 344.93 364.045 338.779C377.789 326.621 394.396 317.467 407.424 304.879Z" stroke="#E50000" stroke-miterlimit="10" mask="url(#path-1-inside-1_495_2551)"/>
<path d="M418.591 307.741C428.612 298.3 437.488 285.57 435.77 271.838C431.905 240.656 383.659 220.487 359.75 206.899C338.562 194.883 310.932 182.01 294.468 162.271C291.461 158.552 288.741 154.69 286.594 150.399C278.29 134.235 282.442 117.071 269.843 101.479C257.388 86.0313 216.586 72.8717 185.377 81.0249C184.947 81.1679 184.518 81.311 184.088 81.311C172.349 84.6009 164.904 90.1794 158.891 95.6148C139.994 112.922 127.682 136.381 134.84 162.128C135.556 164.559 134.267 167.134 131.69 169.709C120.237 181.581 82.5852 194.454 84.5895 206.183C90.4592 239.941 135.556 270.265 130.974 304.308C127.109 332.772 137.131 357.375 140.423 385.125C141.998 399.285 102.914 428.036 107.209 441.768C118.233 476.24 185.806 482.963 221.74 488.398C237.059 490.687 252.664 490.544 267.982 489.113C308.927 485.394 349.013 464.368 346.723 418.882C345.72 397.426 345.577 380.261 354.31 364.241C358.032 357.375 363.473 350.795 371.06 344.216C386.236 331.199 404.274 321.329 418.591 307.741Z" stroke="#E50000" stroke-miterlimit="10" mask="url(#path-1-inside-1_495_2551)"/>
<path d="M429.758 310.601C440.638 300.445 450.373 286.713 448.512 271.694C444.503 237.794 392.105 216.052 366.336 201.462C343.43 188.589 313.365 174.714 295.613 153.258C292.32 149.253 289.457 145.105 287.023 140.528C278.004 123.077 282.442 104.339 268.841 87.6036C255.241 70.8682 211.289 56.7074 177.36 65.4327C176.93 65.5757 176.501 65.7188 176.071 65.7188C163.473 69.2947 155.312 75.3023 148.727 81.31C128.398 100.048 114.94 125.223 122.671 153.115C123.387 155.833 121.955 158.408 119.235 161.268C106.637 173.999 65.6918 187.874 67.8393 200.318C74.2816 236.793 123.673 269.405 118.519 306.166C114.224 337.063 125.248 363.811 128.684 393.849C130.402 409.154 87.7391 440.479 92.4635 455.212C104.489 492.545 177.932 499.554 216.73 505.562C233.337 508.137 250.23 507.85 266.98 506.277C311.218 502.272 354.883 479.672 352.163 430.324C351.017 407.151 351.017 388.699 360.466 371.535C364.618 364.097 370.345 357.088 378.505 349.936C394.826 335.775 414.153 325.19 429.758 310.601Z" stroke="#E50000" stroke-miterlimit="10" mask="url(#path-1-inside-1_495_2551)"/>
<path d="M440.924 313.462C452.807 302.591 463.258 287.715 461.397 271.695C457.102 235.22 400.695 211.762 372.922 196.171C348.297 182.296 315.942 167.42 296.615 144.534C293.036 140.243 289.887 135.665 287.31 130.802C277.574 112.064 282.442 91.8957 267.696 73.8729C253.093 55.9931 205.706 40.6879 169.199 50.1285C168.77 50.2715 168.197 50.4146 167.768 50.5576C154.167 54.2766 145.434 60.7133 138.276 67.2931C116.372 87.3184 101.912 114.496 110.216 144.248C110.932 147.109 109.5 149.969 106.494 152.973C92.893 166.562 48.369 181.295 50.8028 194.74C57.961 233.79 111.361 268.834 105.778 308.313C101.053 341.784 113.079 370.391 116.801 402.718C118.663 419.167 72.4207 452.925 77.4314 468.802C90.3161 508.996 169.772 516.434 211.576 522.727C229.471 525.445 247.653 525.159 265.692 523.586C313.222 519.294 360.323 494.978 357.46 441.911C356.171 417.022 356.171 397.283 366.336 378.974C370.774 371.107 376.93 363.383 385.806 355.801C403.272 340.353 424.031 329.053 440.924 313.462Z" stroke="#E50000" stroke-miterlimit="10" mask="url(#path-1-inside-1_495_2551)"/>
<path d="M452.091 316.322C464.833 304.736 476.143 288.859 474.138 271.551C469.7 232.359 409.142 207.327 379.364 190.735C353.022 176.002 318.376 160.124 297.617 135.522C293.752 130.945 290.459 126.081 287.596 120.789C277.002 100.764 282.299 79.1648 266.551 59.8546C250.946 40.6874 200.123 24.5241 161.039 34.5368C160.466 34.6798 160.037 34.8229 159.464 34.9659C144.861 38.971 135.556 45.8368 127.968 52.8457C104.489 74.1584 89.0275 103.195 97.9036 135.093C98.7626 138.097 97.0448 141.243 93.8952 144.39C79.1493 158.837 31.3325 174.571 33.9095 188.732C41.7835 230.499 99.1922 267.832 93.1793 309.886C88.0254 345.788 100.91 376.542 104.919 411.157C106.923 428.751 56.9589 464.939 62.3991 481.961C76.1428 525.015 161.612 532.882 206.279 539.605C225.463 542.466 245.076 542.18 264.26 540.464C315.227 535.886 365.62 509.996 362.471 452.924C361.039 426.462 361.182 405.292 372.062 385.696C376.787 377.257 383.372 369.104 392.821 360.95C411.719 344.787 433.909 332.915 452.091 316.322Z" stroke="#E50000" stroke-miterlimit="10" mask="url(#path-1-inside-1_495_2551)"/>
<path d="M463.258 319.183C477.002 306.739 489.028 289.861 487.023 271.552C482.299 229.784 417.732 203.036 386.093 185.443C358.033 169.708 320.953 152.83 298.906 126.654C294.754 121.79 291.175 116.641 288.312 111.063C277.002 89.6068 282.728 66.7207 265.835 46.1232C249.228 25.6687 194.969 8.50404 153.308 19.0889C152.736 19.2319 152.163 19.375 151.733 19.5181C136.128 23.8092 126.25 31.1042 118.09 38.5422C93.1793 61.2853 76.5724 92.0385 86.0212 126.082C86.8802 129.371 85.1621 132.661 81.583 135.951C65.6918 151.399 14.4393 167.849 17.3025 182.868C25.7492 227.353 87.4527 266.974 80.8672 311.745C75.2838 350.08 89.1707 382.836 93.4657 419.739C95.6131 438.477 42.0697 477.098 47.9395 495.121C62.6853 541.036 154.024 549.189 201.698 556.484C222.17 559.631 243.072 559.345 263.544 557.485C317.804 552.622 371.633 525.159 368.34 464.224C366.765 436.046 367.052 413.589 378.505 392.848C383.516 383.837 390.531 375.255 400.552 366.672C420.166 349.365 443.788 336.777 463.258 319.183Z" stroke="#E50000" stroke-miterlimit="10" mask="url(#path-1-inside-1_495_2551)"/>
<path d="M262.113 574.507C319.665 569.214 377.073 540.178 373.494 475.381C371.06 432.47 372.778 402.289 407.71 372.108C428.755 353.942 453.809 340.639 474.425 322.044C489.027 308.885 501.912 291.005 499.765 271.409C494.897 227.067 426.035 198.602 392.535 180.007C357.173 160.268 308.354 138.812 288.455 101.05C276.429 78.3067 282.442 53.9902 264.546 32.1053C246.651 10.2204 187.811 -8.37458 143.43 3.92672C126.823 8.50395 116.229 16.228 107.639 24.0951C81.1535 48.1255 63.5443 80.7383 73.4226 116.784C78.5765 135.808 -3.59946 157.55 0.122796 176.86C9.14212 223.92 74.9974 265.973 67.9823 313.462C61.9694 354.228 76.7154 389.129 81.2966 428.322C83.5873 448.204 26.4649 489.399 32.6209 508.423C48.2258 557.199 145.72 565.781 196.114 573.506C218.018 576.795 240.352 576.509 262.113 574.507Z" stroke="#E50000" stroke-miterlimit="10" mask="url(#path-1-inside-1_495_2551)"/>
</g>
</svg>
