<svg width="910" height="789" viewBox="0 0 910 789" fill="none" xmlns="http://www.w3.org/2000/svg">
<g opacity="0.07">
<mask id="path-1-inside-1_489_2550" fill="white">
<path d="M476.922 345.34C476.018 338.336 471.046 334.722 466.527 334.496C462.007 334.044 457.488 335.626 453.194 333.818C447.318 331.333 442.573 322.522 436.245 322.071C426.754 321.167 420.653 339.466 411.387 342.855C408.224 343.984 404.834 343.533 401.896 345.114C398.959 346.921 396.247 352.569 398.055 357.087C398.733 358.668 399.862 359.798 400.766 360.702C405.512 364.316 411.161 365.446 416.133 363.413C427.206 359.12 438.053 367.479 449.804 364.09C457.262 362.057 479.634 365.446 476.922 345.34Z"/>
<path d="M440.99 304.45C437.601 302.868 434.211 302.19 430.595 303.546C422.912 306.483 417.036 317.553 412.065 324.782C407.771 330.881 403.478 337.659 397.602 341.047C396.472 341.725 395.342 342.177 393.986 342.629C389.467 344.21 384.495 343.532 380.202 346.695C375.23 350.084 370.936 361.153 373.648 369.738C373.648 369.964 373.648 369.964 373.874 370.19C375.004 373.127 376.586 375.16 378.394 376.742C384.721 382.615 392.63 385.326 400.54 383.067C401.444 382.841 402.122 382.841 403.026 383.067C408.449 383.745 413.873 388.941 419.296 389.167C430.595 389.619 441.442 384.649 453.193 383.971C459.295 383.745 466.074 382.389 473.532 381.486C477.825 381.034 484.379 386.23 488.672 384.874C497.938 381.938 502.457 369.512 504.039 358.895C504.491 355.28 504.491 351.439 504.039 347.373C502.683 335.174 495 326.363 484.605 326.137C477.373 325.911 470.82 327.267 464.718 324.33C462.007 323.2 459.521 321.167 457.035 318.682C451.386 313.26 446.64 307.161 440.99 304.45Z"/>
<path d="M445.51 286.828C440.99 283.892 436.018 281.858 430.369 283.44C418.392 286.603 410.031 304.224 403.477 314.616C397.828 323.426 391.726 333.818 383.365 339.692C381.783 340.822 379.975 341.725 378.393 342.403C371.614 345.114 364.608 343.984 358.281 348.729C351.276 353.699 345.4 370.19 349.242 382.615C349.242 382.841 349.242 383.067 349.468 383.067C351.05 387.585 353.309 390.522 355.795 393.007C364.157 401.14 375.004 405.658 386.303 402.496C387.433 402.27 388.562 402.496 389.692 402.948C396.246 405.433 403.477 416.05 410.031 415.824C425.623 415.373 440.086 403.399 455.905 403.851C465.848 404.077 475.791 401.592 486.864 400.236C492.966 399.559 503.587 410.403 509.462 408.595C523.247 404.077 528.445 382.389 530.704 367.027C531.608 361.38 531.382 355.28 530.93 349.18C529.123 331.785 518.953 318.004 502.231 317.553C492.514 317.327 483.7 318.908 475.565 314.842C472.175 313.034 468.786 310.549 465.622 307.161C458.616 299.931 452.741 291.573 445.51 286.828Z"/>
<path d="M450.031 269.207C444.381 264.915 437.602 261.526 430.371 263.107C414.326 266.722 403.253 290.669 394.892 303.997C387.66 315.519 380.203 329.752 369.13 337.659C367.096 339.24 364.836 340.369 362.576 341.499C353.763 345.339 344.498 343.532 336.137 350.084C327.323 356.861 319.866 378.549 324.385 395.04C324.385 395.266 324.611 395.492 324.611 395.718C326.419 401.818 329.583 405.884 332.747 409.047C343.368 419.665 356.927 425.764 371.39 421.698C372.745 421.246 374.327 421.924 375.909 422.602C383.818 426.894 392.406 442.708 400.315 442.256C419.975 440.901 438.28 422.376 458.392 423.505C472.177 424.183 485.284 420.343 500.199 418.535C508.108 417.632 522.571 434.123 530.254 431.638C548.558 425.764 554.434 394.589 557.372 374.708C558.502 367.027 558.502 358.894 557.598 350.762C555.338 328.17 542.683 308.516 519.859 308.968C507.43 309.194 496.583 310.323 486.64 305.127C482.346 302.868 478.278 299.705 474.211 295.187C465.849 286.602 458.844 275.984 450.031 269.207Z"/>
<path d="M454.549 251.586C447.77 245.938 439.409 241.194 430.144 243.001C410.031 246.842 396.246 277.566 386.303 293.832C377.716 308.064 368.451 325.911 355.118 336.077C352.632 338.111 349.92 339.692 346.983 341.047C336.135 346.243 324.61 343.758 314.215 351.891C303.368 360.25 294.329 387.133 299.979 407.917C299.979 408.143 300.205 408.369 300.205 408.821C302.464 416.502 306.306 421.472 310.148 425.313C322.803 438.416 339.299 446.097 357.152 441.127C358.96 440.675 360.541 441.353 362.575 442.482C371.84 448.356 382.01 469.818 391.275 468.914C415.229 466.655 437.149 441.353 461.555 443.386C479.407 444.741 495.678 439.319 513.982 437.286C523.7 436.157 542.004 458.296 551.495 455.359C574.319 448.13 580.647 407.466 584.488 382.841C586.07 373.127 585.844 362.961 584.94 352.795C582.229 324.782 566.862 299.705 537.936 300.609C522.796 301.061 509.915 301.964 498.164 295.865C492.966 293.154 488.221 289.313 483.249 283.891C473.08 273.273 464.945 260.397 454.549 251.586Z"/>
<path d="M459.07 233.965C450.934 226.735 440.991 220.862 430.144 222.669C405.738 226.961 389.468 264.011 377.943 283.439C367.774 300.383 357.152 322.07 341.108 334.496C338.17 336.755 335.006 338.788 331.617 340.369C318.736 346.695 304.951 343.532 292.296 353.472C279.641 363.412 268.794 395.718 275.573 420.568C275.573 420.794 275.799 421.246 275.799 421.472C278.511 430.734 283.031 436.608 287.55 441.352C302.239 456.714 321.899 466.203 342.916 460.329C344.949 459.877 346.983 460.555 349.243 462.362C359.638 470.043 371.389 496.927 382.01 495.571C410.258 492.183 435.794 460.555 464.267 463.04C485.961 465.073 505.396 458.296 527.542 455.585C539.067 454.229 561.213 482.017 572.512 478.628C599.856 469.817 606.861 419.891 611.155 390.748C612.963 379 612.737 366.801 611.607 354.602C608.443 321.393 590.591 290.895 555.564 292.25C537.711 292.928 522.796 293.606 509.012 286.376C503.136 283.214 497.486 278.695 491.837 272.37C480.312 259.719 471.047 244.808 459.07 233.965Z"/>
<path d="M463.589 216.344C454.324 207.759 442.799 200.304 429.918 202.337C401.445 206.855 382.462 250.456 369.355 272.822C357.83 292.702 345.401 317.778 326.871 332.463C323.481 335.173 319.64 337.659 315.798 339.466C300.657 346.921 284.612 343.306 270.15 354.828C255.461 366.349 243.032 404.077 250.715 432.994C250.715 433.445 250.941 433.671 250.941 434.123C254.105 444.967 259.303 451.744 264.5 457.392C281.449 475.239 303.821 486.309 328.001 479.532C330.261 478.854 332.746 479.984 335.232 482.017C346.983 491.505 360.316 523.585 372.067 522.229C404.382 517.937 433.76 479.532 466.527 482.921C492.063 485.632 514.887 477.273 540.423 474.336C553.756 472.754 579.743 506.415 592.85 502.123C624.714 491.957 632.397 432.316 637.368 398.655C639.402 384.874 639.176 370.416 638.046 356.41C634.431 318.004 614.092 282.084 572.964 283.665C552.4 284.569 535.451 285.247 519.858 276.888C513.079 273.273 506.526 268.078 500.198 260.848C487.317 246.39 477.148 228.995 463.589 216.344Z"/>
<path d="M468.108 198.723C457.713 188.782 444.38 179.972 429.917 182.231C397.15 186.975 375.908 237.128 360.993 262.656C347.886 285.247 333.875 313.938 312.859 330.882C309.018 334.044 304.724 336.755 300.204 339.014C283.03 347.599 264.725 343.307 248.229 356.636C231.506 369.739 217.495 412.888 226.309 445.871C226.535 446.323 226.535 446.775 226.761 447.226C230.15 459.426 236.252 467.333 242.127 473.658C261.11 493.764 286.419 506.642 313.989 498.961C316.701 498.283 319.413 499.412 322.124 501.897C335.457 512.967 349.92 550.694 363.253 548.887C399.862 543.691 432.855 498.735 469.916 502.801C499.293 506.19 525.281 496.249 554.659 492.861C569.799 491.053 599.855 530.362 614.318 525.618C650.701 513.871 658.836 444.967 664.711 406.788C667.197 390.974 666.971 374.483 665.389 358.217C661.322 314.616 638.272 273.048 591.042 275.307C567.766 276.211 548.783 276.888 531.383 267.4C523.699 263.334 516.468 257.46 509.237 249.327C494.548 233.061 483.249 213.407 468.108 198.723Z"/>
<path d="M472.628 181.327C461.103 169.806 446.189 159.866 429.692 162.125C392.857 167.321 368.903 223.799 352.407 252.49C337.944 277.792 322.351 310.323 298.849 329.526C294.33 333.14 289.81 336.303 284.838 338.788C265.63 348.502 245.066 343.758 226.535 358.442C208.005 373.353 192.186 421.472 201.904 458.748C202.129 459.2 202.129 459.651 202.355 460.103C206.197 473.884 212.977 482.695 219.53 489.924C240.546 512.515 268.794 526.973 299.753 518.389C302.691 517.485 305.629 519.066 308.792 521.777C323.481 534.654 339.526 577.804 353.989 575.545C394.665 569.219 431.5 517.711 472.628 522.681C505.848 526.748 535.225 515.452 567.992 511.611C584.941 509.578 618.838 554.535 635.109 549.339C676.011 536.236 684.824 457.844 691.378 414.921C694.09 397.074 693.864 378.549 692.056 360.25C687.536 311.453 662 264.463 608.669 266.948C582.907 268.077 561.665 268.529 542.231 258.138C533.869 253.619 525.734 247.068 517.825 237.805C501.78 219.506 489.351 197.819 472.628 181.327Z"/>
<path d="M477.148 163.706C464.494 150.829 447.771 139.533 429.693 142.018C388.564 147.44 362.124 210.47 344.046 242.097C328.001 270.111 310.827 306.257 284.839 327.718C279.867 331.785 274.67 335.173 269.246 338.11C248.004 348.954 225.18 343.532 204.616 360.024C184.051 376.516 166.651 430.057 177.498 471.173C177.724 471.625 177.724 472.303 177.95 472.754C182.244 488.117 189.701 498.057 196.932 505.964C220.208 531.04 251.394 547.08 285.291 537.591C288.455 536.688 291.844 538.269 295.234 541.432C311.279 556.116 328.679 604.461 344.498 601.976C389.468 594.747 429.919 536.688 475.341 542.335C512.627 547.08 544.943 534.203 581.552 529.91C600.308 527.651 638.047 578.256 656.125 572.382C701.547 557.923 710.813 470.043 718.044 422.602C720.982 402.721 720.756 382.163 718.948 361.831C713.976 307.612 685.955 255.427 626.296 258.138C597.822 259.493 574.546 259.719 553.304 248.197C544.039 243.227 535.226 235.998 526.412 225.832C509.012 206.177 495.453 182.231 477.148 163.706Z"/>
<path d="M481.667 146.085C467.882 131.626 449.578 119.201 429.465 121.686C384.269 127.334 355.118 197.141 335.231 231.706C317.831 262.43 299.074 302.416 270.375 325.911C264.951 330.43 259.302 334.27 253.2 337.207C229.924 349.18 204.84 343.306 182.242 361.379C159.644 379.452 140.662 438.416 152.413 483.598C152.639 484.276 152.639 484.728 152.865 485.406C157.61 502.349 165.746 513.193 173.655 521.777C198.965 549.113 233.088 566.96 270.375 556.568C273.991 555.664 277.606 557.472 281.448 561.086C298.848 577.352 317.831 631.345 335.005 628.408C384.269 620.275 428.335 555.439 478.051 561.99C519.18 567.412 554.885 552.953 595.109 548.435C615.674 545.95 657.254 602.203 677.14 595.877C727.082 579.837 737.025 482.694 744.935 430.735C748.324 408.595 747.872 386.004 745.839 363.865C740.415 304.449 709.682 246.616 644.147 250.004C612.962 251.586 587.652 251.812 564.602 238.935C554.659 233.513 544.942 225.606 535.224 214.536C516.016 192.849 501.553 166.643 481.667 146.085Z"/>
<path d="M486.188 128.464C471.273 112.65 451.161 98.6432 429.466 101.354C380.203 107.454 348.339 183.586 326.871 221.314C307.889 254.749 287.551 298.35 256.365 324.33C250.49 329.074 244.388 333.366 237.609 336.755C212.073 349.858 184.955 343.307 160.323 363.187C135.917 382.841 115.127 447.226 128.008 496.475C128.234 497.153 128.46 497.831 128.46 498.508C133.658 517.033 142.471 528.781 151.058 538.269C178.402 568.09 215.463 587.518 256.139 576.222C259.981 575.093 264.048 577.126 268.116 581.193C286.873 599.266 307.211 658.68 325.741 655.518C379.073 646.255 426.981 575.093 480.764 582.322C525.734 588.422 564.603 572.608 608.443 567.412C630.815 564.927 676.238 626.601 697.932 619.824C752.393 602.428 763.014 495.798 771.601 439.094C775.217 414.921 774.991 390.296 772.731 366.124C766.856 301.513 733.637 238.257 661.775 241.872C627.878 243.453 600.76 243.679 575.45 229.899C564.603 224.025 554.208 215.44 543.813 203.467C523.249 179.52 507.656 151.055 486.188 128.464Z"/>
<path d="M490.706 110.842C474.661 93.6731 452.967 78.3111 429.239 81.2479C375.682 87.5735 341.332 170.258 318.282 210.922C297.944 247.068 276.024 294.51 242.127 322.523C235.799 327.719 229.246 332.237 222.015 336.077C194.445 350.31 164.841 343.307 138.402 364.768C111.962 386.23 89.5898 455.585 103.375 509.126C103.601 509.804 103.827 510.482 103.827 511.16C109.476 531.04 118.967 543.917 128.458 554.309C158.062 586.389 197.835 607.624 241.901 595.425C246.194 594.295 250.262 596.555 254.782 600.847C274.894 620.727 296.814 685.338 316.474 681.95C374.1 671.784 425.623 593.844 483.7 601.977C532.512 608.754 574.771 591.359 622.227 585.937C646.406 583.226 695.896 650.548 719.172 643.093C778.153 624.116 789.226 508.223 798.718 447.001C802.785 420.795 802.333 394.137 799.847 367.705C793.52 297.898 757.815 228.995 679.852 233.287C643.243 235.095 614.091 235.094 586.974 220.184C575.223 213.633 564.149 204.596 552.85 191.719C530.478 165.965 513.756 135.467 490.706 110.842Z"/>
<path d="M495.227 93.2213C478.052 74.4705 454.55 57.9788 429.24 60.9156C371.615 67.693 334.554 156.703 309.922 200.53C288.002 239.387 264.5 290.443 228.343 320.941C221.564 326.589 214.333 331.559 206.649 335.625C177.046 350.987 145.182 343.306 116.709 366.575C88.4612 389.619 64.2812 464.396 79.196 522.003C79.4219 522.681 79.648 523.585 79.8739 524.262C85.7494 545.724 95.9185 559.505 106.314 570.8C137.951 605.365 180.887 628.182 227.891 615.079C232.411 613.95 236.931 616.209 241.676 620.953C263.144 642.415 286.42 712.674 307.663 708.833C369.355 697.538 424.721 613.272 487.091 622.083C539.971 629.538 585.167 610.561 636.239 604.687C662.226 601.75 715.558 674.72 740.642 666.813C804.142 646.481 815.893 521.1 825.836 455.133C830.13 426.894 829.678 398.203 827.192 369.738C820.413 294.735 781.996 220.41 698.157 224.928C658.837 226.961 627.651 226.961 598.726 210.922C586.297 203.918 574.094 194.204 562.117 180.198C537.711 152.636 519.858 119.879 495.227 93.2213Z"/>
<path d="M499.745 75.6002C481.441 55.494 456.357 37.6468 429.013 40.8096C367.095 47.8129 327.548 143.374 301.334 190.364C278.058 231.932 252.974 286.603 214.106 319.36C206.874 325.46 199.191 330.656 190.83 335.174C159.192 351.891 125.069 343.532 94.5619 368.383C64.2805 393.007 38.7446 473.206 54.5633 534.881C54.7893 535.784 55.0153 536.462 55.2413 537.366C61.5687 560.409 72.4158 575.093 83.4889 587.066C117.16 624.116 163.034 648.515 213.428 634.508C218.173 633.153 223.145 635.863 228.117 640.833C250.941 664.102 275.798 739.557 298.171 735.491C364.157 723.066 423.138 632.475 489.576 641.963C546.297 650.096 594.883 629.764 649.571 623.438C677.366 620.276 734.539 699.119 761.431 690.534C829.451 668.847 841.88 533.977 852.501 463.492C857.021 433.22 856.569 402.27 853.857 371.997C846.626 291.573 805.723 212.051 715.557 217.021C673.751 219.281 640.305 219.055 609.346 201.885C596.013 194.43 583.132 184.038 570.251 169.128C544.716 139.308 525.959 104.291 499.745 75.6002Z"/>
<path d="M504.266 57.9787C484.605 36.2911 457.94 17.3145 429.014 20.4773C363.028 27.9324 320.769 129.819 292.974 179.746C268.116 224.025 241.45 282.536 200.095 317.327C192.412 323.878 184.277 329.526 175.463 334.044C141.566 351.891 105.409 342.855 72.8682 369.512C40.553 395.718 13.4352 481.339 30.1578 547.08C30.3838 547.983 30.6099 548.887 30.8358 549.565C37.6153 574.189 49.1402 589.777 60.8912 602.654C96.8222 641.963 145.408 668.169 199.191 653.258C204.389 651.903 209.587 654.614 214.784 660.262C239.19 685.338 265.178 766.215 288.906 761.697C359.186 748.368 421.783 651 492.515 661.392C553.077 670.202 604.827 648.289 663.13 641.511C692.733 638.122 753.748 722.614 782.222 713.352C854.762 690.083 867.643 545.95 879.168 470.721C884.139 438.416 883.687 405.432 880.75 373.127C873.066 287.506 829.678 202.563 733.41 207.759C688.892 210.244 653.413 209.792 620.646 191.719C606.409 183.812 592.85 172.742 579.291 156.929C551.948 125.979 532.061 88.7028 504.266 57.9787Z"/>
<path d="M907.641 375.386C899.28 284.569 853.406 193.978 751.036 199.626C683.242 203.467 635.56 200.756 587.878 145.633C559.179 112.424 538.162 72.8892 508.785 40.3578C487.995 17.3147 459.747 -3.01757 428.788 0.371115C358.734 8.05214 313.764 116.716 284.386 169.58C253.201 225.38 219.304 302.417 159.645 333.818C123.714 352.795 85.297 343.307 50.7219 371.546C16.1469 399.785 -13.2307 492.635 6.20367 562.668C13.4351 588.874 25.638 605.591 38.0669 619.146C76.0317 660.94 127.555 688.727 184.502 673.139C214.558 665.006 248.907 794.68 279.414 788.806C353.762 774.574 420.2 670.654 495.226 681.724C559.631 691.212 614.77 667.943 676.689 660.714C708.1 657.099 773.182 747.238 803.238 737.524C880.297 712.9 893.856 559.053 906.059 479.532C911.257 444.967 910.805 409.725 907.641 375.386Z"/>
</mask>
<path d="M476.922 345.34C476.018 338.336 471.046 334.722 466.527 334.496C462.007 334.044 457.488 335.626 453.194 333.818C447.318 331.333 442.573 322.522 436.245 322.071C426.754 321.167 420.653 339.466 411.387 342.855C408.224 343.984 404.834 343.533 401.896 345.114C398.959 346.921 396.247 352.569 398.055 357.087C398.733 358.668 399.862 359.798 400.766 360.702C405.512 364.316 411.161 365.446 416.133 363.413C427.206 359.12 438.053 367.479 449.804 364.09C457.262 362.057 479.634 365.446 476.922 345.34Z" stroke="#0044CC" stroke-miterlimit="10" mask="url(#path-1-inside-1_489_2550)"/>
<path d="M440.99 304.45C437.601 302.868 434.211 302.19 430.595 303.546C422.912 306.483 417.036 317.553 412.065 324.782C407.771 330.881 403.478 337.659 397.602 341.047C396.472 341.725 395.342 342.177 393.986 342.629C389.467 344.21 384.495 343.532 380.202 346.695C375.23 350.084 370.936 361.153 373.648 369.738C373.648 369.964 373.648 369.964 373.874 370.19C375.004 373.127 376.586 375.16 378.394 376.742C384.721 382.615 392.63 385.326 400.54 383.067C401.444 382.841 402.122 382.841 403.026 383.067C408.449 383.745 413.873 388.941 419.296 389.167C430.595 389.619 441.442 384.649 453.193 383.971C459.295 383.745 466.074 382.389 473.532 381.486C477.825 381.034 484.379 386.23 488.672 384.874C497.938 381.938 502.457 369.512 504.039 358.895C504.491 355.28 504.491 351.439 504.039 347.373C502.683 335.174 495 326.363 484.605 326.137C477.373 325.911 470.82 327.267 464.718 324.33C462.007 323.2 459.521 321.167 457.035 318.682C451.386 313.26 446.64 307.161 440.99 304.45Z" stroke="#0044CC" stroke-miterlimit="10" mask="url(#path-1-inside-1_489_2550)"/>
<path d="M445.51 286.828C440.99 283.892 436.018 281.858 430.369 283.44C418.392 286.603 410.031 304.224 403.477 314.616C397.828 323.426 391.726 333.818 383.365 339.692C381.783 340.822 379.975 341.725 378.393 342.403C371.614 345.114 364.608 343.984 358.281 348.729C351.276 353.699 345.4 370.19 349.242 382.615C349.242 382.841 349.242 383.067 349.468 383.067C351.05 387.585 353.309 390.522 355.795 393.007C364.157 401.14 375.004 405.658 386.303 402.496C387.433 402.27 388.562 402.496 389.692 402.948C396.246 405.433 403.477 416.05 410.031 415.824C425.623 415.373 440.086 403.399 455.905 403.851C465.848 404.077 475.791 401.592 486.864 400.236C492.966 399.559 503.587 410.403 509.462 408.595C523.247 404.077 528.445 382.389 530.704 367.027C531.608 361.38 531.382 355.28 530.93 349.18C529.123 331.785 518.953 318.004 502.231 317.553C492.514 317.327 483.7 318.908 475.565 314.842C472.175 313.034 468.786 310.549 465.622 307.161C458.616 299.931 452.741 291.573 445.51 286.828Z" stroke="#0044CC" stroke-miterlimit="10" mask="url(#path-1-inside-1_489_2550)"/>
<path d="M450.031 269.207C444.381 264.915 437.602 261.526 430.371 263.107C414.326 266.722 403.253 290.669 394.892 303.997C387.66 315.519 380.203 329.752 369.13 337.659C367.096 339.24 364.836 340.369 362.576 341.499C353.763 345.339 344.498 343.532 336.137 350.084C327.323 356.861 319.866 378.549 324.385 395.04C324.385 395.266 324.611 395.492 324.611 395.718C326.419 401.818 329.583 405.884 332.747 409.047C343.368 419.665 356.927 425.764 371.39 421.698C372.745 421.246 374.327 421.924 375.909 422.602C383.818 426.894 392.406 442.708 400.315 442.256C419.975 440.901 438.28 422.376 458.392 423.505C472.177 424.183 485.284 420.343 500.199 418.535C508.108 417.632 522.571 434.123 530.254 431.638C548.558 425.764 554.434 394.589 557.372 374.708C558.502 367.027 558.502 358.894 557.598 350.762C555.338 328.17 542.683 308.516 519.859 308.968C507.43 309.194 496.583 310.323 486.64 305.127C482.346 302.868 478.278 299.705 474.211 295.187C465.849 286.602 458.844 275.984 450.031 269.207Z" stroke="#0044CC" stroke-miterlimit="10" mask="url(#path-1-inside-1_489_2550)"/>
<path d="M454.549 251.586C447.77 245.938 439.409 241.194 430.144 243.001C410.031 246.842 396.246 277.566 386.303 293.832C377.716 308.064 368.451 325.911 355.118 336.077C352.632 338.111 349.92 339.692 346.983 341.047C336.135 346.243 324.61 343.758 314.215 351.891C303.368 360.25 294.329 387.133 299.979 407.917C299.979 408.143 300.205 408.369 300.205 408.821C302.464 416.502 306.306 421.472 310.148 425.313C322.803 438.416 339.299 446.097 357.152 441.127C358.96 440.675 360.541 441.353 362.575 442.482C371.84 448.356 382.01 469.818 391.275 468.914C415.229 466.655 437.149 441.353 461.555 443.386C479.407 444.741 495.678 439.319 513.982 437.286C523.7 436.157 542.004 458.296 551.495 455.359C574.319 448.13 580.647 407.466 584.488 382.841C586.07 373.127 585.844 362.961 584.94 352.795C582.229 324.782 566.862 299.705 537.936 300.609C522.796 301.061 509.915 301.964 498.164 295.865C492.966 293.154 488.221 289.313 483.249 283.891C473.08 273.273 464.945 260.397 454.549 251.586Z" stroke="#0044CC" stroke-miterlimit="10" mask="url(#path-1-inside-1_489_2550)"/>
<path d="M459.07 233.965C450.934 226.735 440.991 220.862 430.144 222.669C405.738 226.961 389.468 264.011 377.943 283.439C367.774 300.383 357.152 322.07 341.108 334.496C338.17 336.755 335.006 338.788 331.617 340.369C318.736 346.695 304.951 343.532 292.296 353.472C279.641 363.412 268.794 395.718 275.573 420.568C275.573 420.794 275.799 421.246 275.799 421.472C278.511 430.734 283.031 436.608 287.55 441.352C302.239 456.714 321.899 466.203 342.916 460.329C344.949 459.877 346.983 460.555 349.243 462.362C359.638 470.043 371.389 496.927 382.01 495.571C410.258 492.183 435.794 460.555 464.267 463.04C485.961 465.073 505.396 458.296 527.542 455.585C539.067 454.229 561.213 482.017 572.512 478.628C599.856 469.817 606.861 419.891 611.155 390.748C612.963 379 612.737 366.801 611.607 354.602C608.443 321.393 590.591 290.895 555.564 292.25C537.711 292.928 522.796 293.606 509.012 286.376C503.136 283.214 497.486 278.695 491.837 272.37C480.312 259.719 471.047 244.808 459.07 233.965Z" stroke="#0044CC" stroke-miterlimit="10" mask="url(#path-1-inside-1_489_2550)"/>
<path d="M463.589 216.344C454.324 207.759 442.799 200.304 429.918 202.337C401.445 206.855 382.462 250.456 369.355 272.822C357.83 292.702 345.401 317.778 326.871 332.463C323.481 335.173 319.64 337.659 315.798 339.466C300.657 346.921 284.612 343.306 270.15 354.828C255.461 366.349 243.032 404.077 250.715 432.994C250.715 433.445 250.941 433.671 250.941 434.123C254.105 444.967 259.303 451.744 264.5 457.392C281.449 475.239 303.821 486.309 328.001 479.532C330.261 478.854 332.746 479.984 335.232 482.017C346.983 491.505 360.316 523.585 372.067 522.229C404.382 517.937 433.76 479.532 466.527 482.921C492.063 485.632 514.887 477.273 540.423 474.336C553.756 472.754 579.743 506.415 592.85 502.123C624.714 491.957 632.397 432.316 637.368 398.655C639.402 384.874 639.176 370.416 638.046 356.41C634.431 318.004 614.092 282.084 572.964 283.665C552.4 284.569 535.451 285.247 519.858 276.888C513.079 273.273 506.526 268.078 500.198 260.848C487.317 246.39 477.148 228.995 463.589 216.344Z" stroke="#0044CC" stroke-miterlimit="10" mask="url(#path-1-inside-1_489_2550)"/>
<path d="M468.108 198.723C457.713 188.782 444.38 179.972 429.917 182.231C397.15 186.975 375.908 237.128 360.993 262.656C347.886 285.247 333.875 313.938 312.859 330.882C309.018 334.044 304.724 336.755 300.204 339.014C283.03 347.599 264.725 343.307 248.229 356.636C231.506 369.739 217.495 412.888 226.309 445.871C226.535 446.323 226.535 446.775 226.761 447.226C230.15 459.426 236.252 467.333 242.127 473.658C261.11 493.764 286.419 506.642 313.989 498.961C316.701 498.283 319.413 499.412 322.124 501.897C335.457 512.967 349.92 550.694 363.253 548.887C399.862 543.691 432.855 498.735 469.916 502.801C499.293 506.19 525.281 496.249 554.659 492.861C569.799 491.053 599.855 530.362 614.318 525.618C650.701 513.871 658.836 444.967 664.711 406.788C667.197 390.974 666.971 374.483 665.389 358.217C661.322 314.616 638.272 273.048 591.042 275.307C567.766 276.211 548.783 276.888 531.383 267.4C523.699 263.334 516.468 257.46 509.237 249.327C494.548 233.061 483.249 213.407 468.108 198.723Z" stroke="#0044CC" stroke-miterlimit="10" mask="url(#path-1-inside-1_489_2550)"/>
<path d="M472.628 181.327C461.103 169.806 446.189 159.866 429.692 162.125C392.857 167.321 368.903 223.799 352.407 252.49C337.944 277.792 322.351 310.323 298.849 329.526C294.33 333.14 289.81 336.303 284.838 338.788C265.63 348.502 245.066 343.758 226.535 358.442C208.005 373.353 192.186 421.472 201.904 458.748C202.129 459.2 202.129 459.651 202.355 460.103C206.197 473.884 212.977 482.695 219.53 489.924C240.546 512.515 268.794 526.973 299.753 518.389C302.691 517.485 305.629 519.066 308.792 521.777C323.481 534.654 339.526 577.804 353.989 575.545C394.665 569.219 431.5 517.711 472.628 522.681C505.848 526.748 535.225 515.452 567.992 511.611C584.941 509.578 618.838 554.535 635.109 549.339C676.011 536.236 684.824 457.844 691.378 414.921C694.09 397.074 693.864 378.549 692.056 360.25C687.536 311.453 662 264.463 608.669 266.948C582.907 268.077 561.665 268.529 542.231 258.138C533.869 253.619 525.734 247.068 517.825 237.805C501.78 219.506 489.351 197.819 472.628 181.327Z" stroke="#0044CC" stroke-miterlimit="10" mask="url(#path-1-inside-1_489_2550)"/>
<path d="M477.148 163.706C464.494 150.829 447.771 139.533 429.693 142.018C388.564 147.44 362.124 210.47 344.046 242.097C328.001 270.111 310.827 306.257 284.839 327.718C279.867 331.785 274.67 335.173 269.246 338.11C248.004 348.954 225.18 343.532 204.616 360.024C184.051 376.516 166.651 430.057 177.498 471.173C177.724 471.625 177.724 472.303 177.95 472.754C182.244 488.117 189.701 498.057 196.932 505.964C220.208 531.04 251.394 547.08 285.291 537.591C288.455 536.688 291.844 538.269 295.234 541.432C311.279 556.116 328.679 604.461 344.498 601.976C389.468 594.747 429.919 536.688 475.341 542.335C512.627 547.08 544.943 534.203 581.552 529.91C600.308 527.651 638.047 578.256 656.125 572.382C701.547 557.923 710.813 470.043 718.044 422.602C720.982 402.721 720.756 382.163 718.948 361.831C713.976 307.612 685.955 255.427 626.296 258.138C597.822 259.493 574.546 259.719 553.304 248.197C544.039 243.227 535.226 235.998 526.412 225.832C509.012 206.177 495.453 182.231 477.148 163.706Z" stroke="#0044CC" stroke-miterlimit="10" mask="url(#path-1-inside-1_489_2550)"/>
<path d="M481.667 146.085C467.882 131.626 449.578 119.201 429.465 121.686C384.269 127.334 355.118 197.141 335.231 231.706C317.831 262.43 299.074 302.416 270.375 325.911C264.951 330.43 259.302 334.27 253.2 337.207C229.924 349.18 204.84 343.306 182.242 361.379C159.644 379.452 140.662 438.416 152.413 483.598C152.639 484.276 152.639 484.728 152.865 485.406C157.61 502.349 165.746 513.193 173.655 521.777C198.965 549.113 233.088 566.96 270.375 556.568C273.991 555.664 277.606 557.472 281.448 561.086C298.848 577.352 317.831 631.345 335.005 628.408C384.269 620.275 428.335 555.439 478.051 561.99C519.18 567.412 554.885 552.953 595.109 548.435C615.674 545.95 657.254 602.203 677.14 595.877C727.082 579.837 737.025 482.694 744.935 430.735C748.324 408.595 747.872 386.004 745.839 363.865C740.415 304.449 709.682 246.616 644.147 250.004C612.962 251.586 587.652 251.812 564.602 238.935C554.659 233.513 544.942 225.606 535.224 214.536C516.016 192.849 501.553 166.643 481.667 146.085Z" stroke="#0044CC" stroke-miterlimit="10" mask="url(#path-1-inside-1_489_2550)"/>
<path d="M486.188 128.464C471.273 112.65 451.161 98.6432 429.466 101.354C380.203 107.454 348.339 183.586 326.871 221.314C307.889 254.749 287.551 298.35 256.365 324.33C250.49 329.074 244.388 333.366 237.609 336.755C212.073 349.858 184.955 343.307 160.323 363.187C135.917 382.841 115.127 447.226 128.008 496.475C128.234 497.153 128.46 497.831 128.46 498.508C133.658 517.033 142.471 528.781 151.058 538.269C178.402 568.09 215.463 587.518 256.139 576.222C259.981 575.093 264.048 577.126 268.116 581.193C286.873 599.266 307.211 658.68 325.741 655.518C379.073 646.255 426.981 575.093 480.764 582.322C525.734 588.422 564.603 572.608 608.443 567.412C630.815 564.927 676.238 626.601 697.932 619.824C752.393 602.428 763.014 495.798 771.601 439.094C775.217 414.921 774.991 390.296 772.731 366.124C766.856 301.513 733.637 238.257 661.775 241.872C627.878 243.453 600.76 243.679 575.45 229.899C564.603 224.025 554.208 215.44 543.813 203.467C523.249 179.52 507.656 151.055 486.188 128.464Z" stroke="#0044CC" stroke-miterlimit="10" mask="url(#path-1-inside-1_489_2550)"/>
<path d="M490.706 110.842C474.661 93.6731 452.967 78.3111 429.239 81.2479C375.682 87.5735 341.332 170.258 318.282 210.922C297.944 247.068 276.024 294.51 242.127 322.523C235.799 327.719 229.246 332.237 222.015 336.077C194.445 350.31 164.841 343.307 138.402 364.768C111.962 386.23 89.5898 455.585 103.375 509.126C103.601 509.804 103.827 510.482 103.827 511.16C109.476 531.04 118.967 543.917 128.458 554.309C158.062 586.389 197.835 607.624 241.901 595.425C246.194 594.295 250.262 596.555 254.782 600.847C274.894 620.727 296.814 685.338 316.474 681.95C374.1 671.784 425.623 593.844 483.7 601.977C532.512 608.754 574.771 591.359 622.227 585.937C646.406 583.226 695.896 650.548 719.172 643.093C778.153 624.116 789.226 508.223 798.718 447.001C802.785 420.795 802.333 394.137 799.847 367.705C793.52 297.898 757.815 228.995 679.852 233.287C643.243 235.095 614.091 235.094 586.974 220.184C575.223 213.633 564.149 204.596 552.85 191.719C530.478 165.965 513.756 135.467 490.706 110.842Z" stroke="#0044CC" stroke-miterlimit="10" mask="url(#path-1-inside-1_489_2550)"/>
<path d="M495.227 93.2213C478.052 74.4705 454.55 57.9788 429.24 60.9156C371.615 67.693 334.554 156.703 309.922 200.53C288.002 239.387 264.5 290.443 228.343 320.941C221.564 326.589 214.333 331.559 206.649 335.625C177.046 350.987 145.182 343.306 116.709 366.575C88.4612 389.619 64.2812 464.396 79.196 522.003C79.4219 522.681 79.648 523.585 79.8739 524.262C85.7494 545.724 95.9185 559.505 106.314 570.8C137.951 605.365 180.887 628.182 227.891 615.079C232.411 613.95 236.931 616.209 241.676 620.953C263.144 642.415 286.42 712.674 307.663 708.833C369.355 697.538 424.721 613.272 487.091 622.083C539.971 629.538 585.167 610.561 636.239 604.687C662.226 601.75 715.558 674.72 740.642 666.813C804.142 646.481 815.893 521.1 825.836 455.133C830.13 426.894 829.678 398.203 827.192 369.738C820.413 294.735 781.996 220.41 698.157 224.928C658.837 226.961 627.651 226.961 598.726 210.922C586.297 203.918 574.094 194.204 562.117 180.198C537.711 152.636 519.858 119.879 495.227 93.2213Z" stroke="#0044CC" stroke-miterlimit="10" mask="url(#path-1-inside-1_489_2550)"/>
<path d="M499.745 75.6002C481.441 55.494 456.357 37.6468 429.013 40.8096C367.095 47.8129 327.548 143.374 301.334 190.364C278.058 231.932 252.974 286.603 214.106 319.36C206.874 325.46 199.191 330.656 190.83 335.174C159.192 351.891 125.069 343.532 94.5619 368.383C64.2805 393.007 38.7446 473.206 54.5633 534.881C54.7893 535.784 55.0153 536.462 55.2413 537.366C61.5687 560.409 72.4158 575.093 83.4889 587.066C117.16 624.116 163.034 648.515 213.428 634.508C218.173 633.153 223.145 635.863 228.117 640.833C250.941 664.102 275.798 739.557 298.171 735.491C364.157 723.066 423.138 632.475 489.576 641.963C546.297 650.096 594.883 629.764 649.571 623.438C677.366 620.276 734.539 699.119 761.431 690.534C829.451 668.847 841.88 533.977 852.501 463.492C857.021 433.22 856.569 402.27 853.857 371.997C846.626 291.573 805.723 212.051 715.557 217.021C673.751 219.281 640.305 219.055 609.346 201.885C596.013 194.43 583.132 184.038 570.251 169.128C544.716 139.308 525.959 104.291 499.745 75.6002Z" stroke="#0044CC" stroke-miterlimit="10" mask="url(#path-1-inside-1_489_2550)"/>
<path d="M504.266 57.9787C484.605 36.2911 457.94 17.3145 429.014 20.4773C363.028 27.9324 320.769 129.819 292.974 179.746C268.116 224.025 241.45 282.536 200.095 317.327C192.412 323.878 184.277 329.526 175.463 334.044C141.566 351.891 105.409 342.855 72.8682 369.512C40.553 395.718 13.4352 481.339 30.1578 547.08C30.3838 547.983 30.6099 548.887 30.8358 549.565C37.6153 574.189 49.1402 589.777 60.8912 602.654C96.8222 641.963 145.408 668.169 199.191 653.258C204.389 651.903 209.587 654.614 214.784 660.262C239.19 685.338 265.178 766.215 288.906 761.697C359.186 748.368 421.783 651 492.515 661.392C553.077 670.202 604.827 648.289 663.13 641.511C692.733 638.122 753.748 722.614 782.222 713.352C854.762 690.083 867.643 545.95 879.168 470.721C884.139 438.416 883.687 405.432 880.75 373.127C873.066 287.506 829.678 202.563 733.41 207.759C688.892 210.244 653.413 209.792 620.646 191.719C606.409 183.812 592.85 172.742 579.291 156.929C551.948 125.979 532.061 88.7028 504.266 57.9787Z" stroke="#0044CC" stroke-miterlimit="10" mask="url(#path-1-inside-1_489_2550)"/>
<path d="M907.641 375.386C899.28 284.569 853.406 193.978 751.036 199.626C683.242 203.467 635.56 200.756 587.878 145.633C559.179 112.424 538.162 72.8892 508.785 40.3578C487.995 17.3147 459.747 -3.01757 428.788 0.371115C358.734 8.05214 313.764 116.716 284.386 169.58C253.201 225.38 219.304 302.417 159.645 333.818C123.714 352.795 85.297 343.307 50.7219 371.546C16.1469 399.785 -13.2307 492.635 6.20367 562.668C13.4351 588.874 25.638 605.591 38.0669 619.146C76.0317 660.94 127.555 688.727 184.502 673.139C214.558 665.006 248.907 794.68 279.414 788.806C353.762 774.574 420.2 670.654 495.226 681.724C559.631 691.212 614.77 667.943 676.689 660.714C708.1 657.099 773.182 747.238 803.238 737.524C880.297 712.9 893.856 559.053 906.059 479.532C911.257 444.967 910.805 409.725 907.641 375.386Z" stroke="#0044CC" stroke-miterlimit="10" mask="url(#path-1-inside-1_489_2550)"/>
</g>
</svg>
