<svg width="150" height="18" viewBox="0 0 150 18" fill="none" xmlns="http://www.w3.org/2000/svg">
<path fill-rule="evenodd" clip-rule="evenodd" d="M8.63195 3.125V17.6563H5.4816V3.125H0V0H20.7293V3.125H8.63195ZM13.1684 7.62501H20.7608V4.5H9.9866C9.9866 8.87501 9.9866 13.2813 9.9866 17.6563H17.2324C19.6267 17.6563 21.5799 15.7188 21.5799 13.3438C21.5799 10.9688 19.6267 9.03126 17.2324 9.03126H13.1369V7.62501H13.1684ZM13.1684 12.125V14.5H17.2639C17.9255 14.5 18.461 13.9688 18.461 13.3125C18.461 12.6563 17.9255 12.125 17.2639 12.125H13.1684Z" fill="#E20613"/>
<path fill-rule="evenodd" clip-rule="evenodd" d="M28.3202 7.57642L28.1758 7.43199H25.7928C25.6483 7.43199 25.5039 7.35978 25.5039 7.14314V5.41C25.5039 5.26558 25.5761 5.12115 25.6483 5.12115H33.4474C33.5918 5.12115 33.5918 5.19336 33.5918 5.41V7.14314C33.5918 7.35978 33.5196 7.43199 33.4474 7.43199H30.9199L30.7755 7.57642V16.9642L30.4867 17.2531H28.6091L28.3202 16.9642V7.57642ZM34.314 5.41L34.6028 5.12115H40.6688L40.9576 5.41V6.9987C40.9576 7.21535 40.8854 7.28756 40.6688 7.28756H36.9137L36.8415 7.43199V9.74283H39.8022L40.0189 9.95947V11.7648L39.8022 11.9815H36.9859L36.9137 12.1259V15.0144H41.0299L41.2465 15.2311V17.0364C41.2465 17.1808 41.1743 17.1808 40.9576 17.1808H34.6751C34.5306 17.1808 34.3862 17.0364 34.3862 16.8198V5.41H34.314ZM42.6186 5.41C42.6186 5.26558 42.6908 5.19336 42.8352 5.19336H44.785C44.9294 5.19336 45.0738 5.33779 45.2183 5.69886C45.4349 6.13214 45.5793 6.49321 45.7238 6.78207C45.8682 7.07092 45.9404 7.35978 46.0848 7.57642L46.2293 7.72084L47.3847 5.48222L47.6735 5.19336H49.8399C49.9844 5.19336 50.0566 5.26558 50.0566 5.48222C50.0566 5.55443 50.0566 5.69886 49.9844 5.84329L47.7457 10.6816L50.3454 16.6753C50.4177 16.892 50.4177 16.9642 50.4177 17.0364C50.4177 17.1808 50.3454 17.2531 50.2732 17.2531H48.179C48.0346 17.2531 47.9624 17.1808 47.8902 17.1086L46.3737 14.0034C46.3737 13.9312 46.3015 13.9312 46.2293 13.9312L44.7128 17.1086C44.6406 17.2531 44.5683 17.2531 44.4239 17.2531H42.4019C42.2575 17.2531 42.2575 17.1808 42.2575 17.0364C42.2575 16.892 42.2575 16.7476 42.3297 16.6031L44.8572 10.9705V10.7538C44.8572 10.5372 44.8572 10.3928 44.785 10.2483C44.4961 9.5984 44.2795 9.02069 44.0628 8.44298C43.8462 7.86527 43.6296 7.35978 43.4129 6.85428C43.1963 6.34878 43.0518 6.05993 43.0518 5.98772C42.6186 5.69886 42.6186 5.55443 42.6186 5.41ZM51.0676 5.41L51.3564 5.12115H57.7835L57.9279 5.26558V7.07092L57.7835 7.28756H53.6673L53.5951 7.43199V9.38176C54.3172 9.38176 54.8949 9.45397 55.256 9.45397C55.4726 9.45397 55.7615 9.52619 56.1947 9.5984C58.0001 10.1039 58.8667 11.3315 58.8667 13.2091C58.8667 14.0757 58.65 14.7978 58.2167 15.5199C57.5668 16.6031 56.5558 17.1086 55.256 17.1086H51.4286C51.212 17.1086 51.0676 17.0364 51.0676 16.8198V5.41ZM54.9671 11.7648H53.5228V14.87L53.5951 14.9422C53.5951 14.9422 53.8117 14.9422 54.1005 14.9422C54.5338 14.9422 54.7505 14.9422 54.8227 14.9422C55.1115 14.9422 55.4726 14.7256 55.7615 14.2923C55.9781 14.0757 56.0503 13.7868 56.0503 13.2813C56.0503 12.848 55.9781 12.5592 55.7615 12.3425C55.5448 11.9815 55.256 11.7648 54.9671 11.7648ZM60.1665 5.41L60.4554 5.12115H66.5213L66.8102 5.41V6.9987C66.8102 7.21535 66.738 7.28756 66.5213 7.28756H62.7662L62.694 7.43199V9.74283H65.6548L65.8714 9.95947V11.7648L65.6548 11.9815H62.8384L62.7662 12.1259V15.0144H66.8824L67.099 15.2311V17.0364C67.099 17.1808 67.0268 17.1808 66.8102 17.1808H60.5276C60.3831 17.1808 60.2387 17.0364 60.2387 16.8198V5.41H60.1665ZM68.5433 7.35977C68.3989 7.35977 68.2544 7.28756 68.2544 7.07092V5.41C68.2544 5.26558 68.3989 5.12115 68.7599 5.04894C68.8322 5.04894 68.9766 4.97672 69.0488 4.97672C69.121 4.97672 69.1932 4.97672 69.2654 4.97672H70.2764H71.2874C71.5763 4.97672 71.8651 5.04893 72.154 5.19336C72.9483 5.41 73.5983 5.98771 73.9593 6.85428C74.0315 6.99871 74.1038 7.21535 74.1038 7.43199C74.1038 7.64863 74.176 7.93749 74.176 8.29855C74.176 9.45397 73.8149 10.2483 73.0206 10.826C73.0206 10.8982 73.0928 10.8982 73.0928 10.8982C73.5261 11.2593 73.7427 11.476 73.8871 11.6204C74.0315 11.837 74.176 12.1259 74.2482 12.5592C74.3204 12.9202 74.3204 13.3535 74.3204 13.9312V14.7978C74.3204 15.0144 74.2482 15.2311 74.2482 15.3755C73.8871 16.7476 72.9483 17.4697 71.4319 17.4697H70.4931C69.8431 17.4697 69.2654 17.4697 68.8322 17.3975C68.3267 17.3253 68.11 17.1808 68.11 16.9642V15.1589L68.1822 15.0144C68.1822 15.0144 68.2544 15.0144 68.3267 15.0144C68.4711 15.0144 68.5433 15.0144 68.6155 15.0144C69.121 15.0866 69.4821 15.1589 69.6265 15.1589H70.132C71.2152 15.1589 71.7207 14.6534 71.7207 13.5702C71.7207 13.2091 71.7207 12.9924 71.6485 12.7758C71.4319 12.1981 71.0708 11.9092 70.7097 11.9092C70.2042 11.837 69.6987 11.837 69.2654 11.837C69.121 11.837 68.9766 11.6926 68.9766 11.5482V9.95947C68.9766 9.81505 69.0488 9.74283 69.2654 9.67062C69.9876 9.67062 70.4931 9.5984 70.7819 9.5984C71.2874 9.52619 71.5763 9.16512 71.5763 8.5152C71.5763 8.0097 71.3596 7.57642 70.8541 7.43199C70.6375 7.35978 70.3486 7.35977 69.9154 7.35977H69.2654C68.9044 7.35977 68.6877 7.35977 68.5433 7.35977ZM79.3032 17.3253C77.6422 17.3253 76.559 16.6754 75.9813 15.3755C75.7647 14.7978 75.6203 14.2201 75.6203 13.7868V8.5152C75.6203 8.08192 75.7647 7.5042 75.9813 6.92649C76.4146 5.98771 76.9923 5.41 77.8589 5.12115C78.2922 4.97672 78.7977 4.90451 79.3032 4.90451C79.8809 4.90451 80.3141 4.97672 80.7474 5.12115C81.0363 5.26558 81.3251 5.41 81.614 5.55443C81.9028 5.77107 82.1195 5.98771 82.2639 6.20435C82.4083 6.49321 82.5528 6.78207 82.6972 7.07092C82.9138 7.72085 82.986 8.22634 82.986 8.58741V13.6424C82.986 13.9312 82.9138 14.2923 82.7694 14.7256C82.4083 15.881 81.7584 16.6753 80.7474 17.0364C80.3864 17.3253 79.9531 17.3253 79.3032 17.3253ZM79.3032 15.1589C80.0975 15.1589 80.4586 14.7256 80.4586 13.7868V8.5152C80.4586 7.57642 80.0975 7.14314 79.3032 7.14314C78.5088 7.14314 78.1477 7.57642 78.1477 8.5152V13.7868C78.1477 14.7256 78.581 15.1589 79.3032 15.1589ZM88.9798 7.35977H86.7412V16.8198C86.7412 17.0364 86.669 17.1808 86.4523 17.1808H84.5748C84.4303 17.1808 84.2859 17.0364 84.2859 16.8198V5.41C84.2859 5.26558 84.4303 5.12115 84.647 5.12115H91.2184C91.4351 5.12115 91.5795 5.19336 91.5795 5.41V16.892L91.2906 17.1808H89.4131L89.052 16.892V7.43199L88.9798 7.35977ZM92.3738 16.892V16.8198L94.9735 5.69886C95.0457 5.33779 95.1902 5.19336 95.3346 5.19336H97.8621C98.0065 5.19336 98.1509 5.33779 98.2232 5.62665L100.967 16.9642C100.967 17.0364 100.967 17.1086 100.895 17.1808C100.895 17.2531 100.823 17.2531 100.751 17.2531H98.8009C98.6564 17.2531 98.512 17.1086 98.4398 16.892C98.3676 16.5309 98.2232 16.0976 98.0787 15.5199C98.0065 15.3033 98.0065 15.2311 97.9343 15.2311H95.3346L95.1902 15.4477C94.9735 16.1699 94.9013 16.6031 94.8291 16.8198C94.7569 17.1086 94.6125 17.2531 94.468 17.2531H92.5905C92.3738 17.1808 92.3738 17.1086 92.3738 16.892ZM96.4178 9.45397L95.6957 12.848H97.3566L96.5622 9.52619C96.6345 9.45397 96.5622 9.38176 96.4178 9.45397C96.4178 9.38176 96.4178 9.38176 96.4178 9.45397ZM105.806 17.3253C105.011 17.3253 104.434 17.2531 104 17.1808C102.556 16.8198 101.834 15.8088 101.834 14.2201V7.79306C101.834 6.56543 102.412 5.77108 103.495 5.26558C104.072 5.04894 104.578 4.90451 105.011 4.90451H105.878C106.456 4.90451 106.889 4.90451 107.25 4.97672C107.539 5.04894 107.683 5.19336 107.683 5.33779V7.07092C107.683 7.21535 107.611 7.21535 107.467 7.21535H107.394C107.033 7.14313 106.744 7.07092 106.456 7.07092C106.456 7.07092 106.239 7.07092 105.95 7.07092C105.372 7.07092 104.939 7.21535 104.65 7.43199C104.361 7.64863 104.217 8.0097 104.217 8.5152V13.4257C104.217 14.2201 104.506 14.6534 105.011 14.87C105.228 14.9422 105.589 14.9422 106.022 14.9422H106.672C106.817 14.87 106.889 14.87 106.961 14.87C107.033 14.87 107.178 14.87 107.467 14.87C107.683 14.87 107.755 14.87 107.755 14.87L107.828 15.1589V15.7366V16.6031C107.828 16.7476 107.755 16.892 107.755 16.9642C107.683 17.1086 107.467 17.2531 107.105 17.3253C106.961 17.3253 106.744 17.3975 106.456 17.3975H105.806V17.3253ZM109.2 5.41L109.489 5.12115H111.366L111.655 5.41V9.23734L111.799 9.30955H113.894L114.038 9.0929V5.41L114.327 5.12115H116.204L116.493 5.41V16.892L116.204 17.1808H114.327L114.038 16.892V11.9092L113.894 11.837H111.655V16.8198C111.655 17.0364 111.583 17.1808 111.366 17.1808H109.489C109.344 17.1808 109.2 17.0364 109.2 16.8198V5.41ZM121.404 17.3253C119.743 17.3253 118.66 16.6754 118.082 15.3755C117.865 14.7978 117.721 14.2201 117.721 13.7868V8.5152C117.721 8.08192 117.865 7.5042 118.082 6.92649C118.515 5.98771 119.093 5.41 119.959 5.12115C120.393 4.97672 120.898 4.90451 121.404 4.90451C121.981 4.90451 122.415 4.97672 122.848 5.12115C123.137 5.26558 123.426 5.41 123.715 5.55443C124.003 5.77107 124.22 5.98771 124.365 6.20435C124.509 6.49321 124.653 6.78207 124.798 7.07092C125.014 7.72085 125.087 8.22634 125.087 8.58741V13.6424C125.087 13.9312 125.014 14.2923 124.87 14.7256C124.509 15.881 123.859 16.6753 122.848 17.0364C122.487 17.3253 121.981 17.3253 121.404 17.3253ZM121.404 15.1589C122.198 15.1589 122.559 14.7256 122.559 13.7868V8.5152C122.559 7.57642 122.198 7.14314 121.404 7.14314C120.609 7.14314 120.248 7.57642 120.248 8.5152V13.7868C120.248 14.7256 120.609 15.1589 121.404 15.1589ZM130.358 17.3253C129.564 17.3253 128.986 17.2531 128.553 17.1808C127.109 16.8198 126.387 15.8088 126.387 14.2201V7.79306C126.387 6.56543 126.964 5.77108 128.047 5.26558C128.625 5.04894 129.131 4.90451 129.564 4.90451H130.43C131.008 4.90451 131.441 4.90451 131.803 4.97672C132.091 5.04894 132.236 5.19336 132.236 5.33779V7.07092C132.236 7.21535 132.164 7.21535 132.019 7.21535H131.947C131.586 7.14313 131.297 7.07092 131.008 7.07092C131.008 7.07092 130.792 7.07092 130.503 7.07092C129.925 7.07092 129.492 7.21535 129.203 7.43199C128.914 7.64863 128.77 8.0097 128.77 8.5152V13.4257C128.77 14.2201 129.058 14.6534 129.564 14.87C129.781 14.9422 130.142 14.9422 130.575 14.9422H131.225C131.369 14.87 131.441 14.87 131.514 14.87C131.586 14.87 131.73 14.87 132.019 14.87C132.236 14.87 132.308 14.87 132.308 14.87L132.38 15.1589V15.7366V16.6031C132.38 16.7476 132.308 16.892 132.308 16.9642C132.236 17.1086 132.019 17.2531 131.658 17.3253C131.514 17.3253 131.297 17.3975 131.008 17.3975H130.358V17.3253ZM136.063 7.57642L135.919 7.43199H133.536C133.391 7.43199 133.247 7.35978 133.247 7.14314V5.41C133.247 5.26558 133.319 5.12115 133.391 5.12115H141.118C141.263 5.12115 141.263 5.19336 141.263 5.41V7.14314C141.263 7.35978 141.19 7.43199 141.118 7.43199H138.591L138.446 7.57642V16.9642L138.157 17.2531H136.28L135.991 16.9642V7.57642H136.063ZM142.274 5.41L142.562 5.12115H144.44L144.657 5.41V9.30955L144.801 9.38176C145.668 9.38176 146.245 9.45397 146.679 9.45397C146.967 9.45397 147.256 9.52619 147.545 9.5984C148.701 9.95947 149.495 10.826 149.856 12.1981C149.928 12.4147 150 12.848 150 13.3535C150 14.0034 149.928 14.5089 149.784 14.87C149.278 16.3143 148.195 17.1086 146.606 17.1086H142.562C142.346 17.1086 142.201 17.0364 142.201 16.8198V5.41H142.274ZM146.173 11.7648H144.729V14.7978H146.318C146.534 14.7978 146.823 14.5812 147.112 14.0757C147.256 13.859 147.256 13.6424 147.256 13.2813C147.256 13.0647 147.256 12.848 147.184 12.6314C146.967 12.0537 146.606 11.7648 146.173 11.7648Z" fill="#1D1D1B"/>
</svg>
