<svg width="173" height="82" viewBox="0 0 173 82" fill="none" xmlns="http://www.w3.org/2000/svg">
<g clip-path="url(#clip0_211_255)">
<path fill-rule="evenodd" clip-rule="evenodd" d="M79.3 10V56.5H69.3V10H51.9V0H117.7V10H79.3ZM93.7 24.4H117.8V14.4H83.6C83.6 28.4 83.6 42.5 83.6 56.5H106.6C114.2 56.5 120.4 50.3 120.4 42.7C120.4 35.1 114.2 28.9 106.6 28.9H93.6V24.4H93.7ZM93.7 38.8V46.4H106.7C108.8 46.4 110.5 44.7 110.5 42.6C110.5 40.5 108.8 38.8 106.7 38.8H93.7Z" fill="#E20613"/>
<path fill-rule="evenodd" clip-rule="evenodd" d="M3.9 68L3.7 67.8H0.4C0.2 67.8 0 67.7 0 67.4V65C0 64.8 0.1 64.6 0.2 64.6H11C11.2 64.6 11.2 64.7 11.2 65V67.4C11.2 67.7 11.1 67.8 11 67.8H7.5L7.3 68V81L6.9 81.4H4.3L3.9 81V68ZM12.2 65L12.6 64.6H21L21.4 65V67.2C21.4 67.5 21.3 67.6 21 67.6H15.8L15.7 67.8V71H19.8L20.1 71.3V73.8L19.8 74.1H15.9L15.8 74.3V78.3H21.5L21.8 78.6V81.1C21.8 81.3 21.7 81.3 21.4 81.3H12.7C12.5 81.3 12.3 81.1 12.3 80.8V65H12.2ZM23.7 65C23.7 64.8 23.8 64.7 24 64.7H26.7C26.9 64.7 27.1 64.9 27.3 65.4C27.6 66 27.8 66.5 28 66.9C28.2 67.3 28.3 67.7 28.5 68L28.7 68.2L30.3 65.1L30.7 64.7H33.7C33.9 64.7 34 64.8 34 65.1C34 65.2 34 65.4 33.9 65.6L30.8 72.3L34.4 80.6C34.5 80.9 34.5 81 34.5 81.1C34.5 81.3 34.4 81.4 34.3 81.4H31.4C31.2 81.4 31.1 81.3 31 81.2L28.9 76.9C28.9 76.8 28.8 76.8 28.7 76.8L26.6 81.2C26.5 81.4 26.4 81.4 26.2 81.4H23.4C23.2 81.4 23.2 81.3 23.2 81.1C23.2 80.9 23.2 80.7 23.3 80.5L26.8 72.7V72.4C26.8 72.1 26.8 71.9 26.7 71.7C26.3 70.8 26 70 25.7 69.2C25.4 68.4 25.1 67.7 24.8 67C24.5 66.3 24.3 65.9 24.3 65.8C23.7 65.4 23.7 65.2 23.7 65ZM35.4 65L35.8 64.6H44.7L44.9 64.8V67.3L44.7 67.6H39L38.9 67.8V70.5C39.9 70.5 40.7 70.6 41.2 70.6C41.5 70.6 41.9 70.7 42.5 70.8C45 71.5 46.2 73.2 46.2 75.8C46.2 77 45.9 78 45.3 79C44.4 80.5 43 81.2 41.2 81.2H35.9C35.6 81.2 35.4 81.1 35.4 80.8V65ZM40.8 73.8H38.8V78.1L38.9 78.2C38.9 78.2 39.2 78.2 39.6 78.2C40.2 78.2 40.5 78.2 40.6 78.2C41 78.2 41.5 77.9 41.9 77.3C42.2 77 42.3 76.6 42.3 75.9C42.3 75.3 42.2 74.9 41.9 74.6C41.6 74.1 41.2 73.8 40.8 73.8ZM48 65L48.4 64.6H56.8L57.2 65V67.2C57.2 67.5 57.1 67.6 56.8 67.6H51.6L51.5 67.8V71H55.6L55.9 71.3V73.8L55.6 74.1H51.7L51.6 74.3V78.3H57.3L57.6 78.6V81.1C57.6 81.3 57.5 81.3 57.2 81.3H48.5C48.3 81.3 48.1 81.1 48.1 80.8V65H48ZM59.6 67.7C59.4 67.7 59.2 67.6 59.2 67.3V65C59.2 64.8 59.4 64.6 59.9 64.5C60 64.5 60.2 64.4 60.3 64.4C60.4 64.4 60.5 64.4 60.6 64.4H62H63.4C63.8 64.4 64.2 64.5 64.6 64.7C65.7 65 66.6 65.8 67.1 67C67.2 67.2 67.3 67.5 67.3 67.8C67.3 68.1 67.4 68.5 67.4 69C67.4 70.6 66.9 71.7 65.8 72.5C65.8 72.6 65.9 72.6 65.9 72.6C66.5 73.1 66.8 73.4 67 73.6C67.2 73.9 67.4 74.3 67.5 74.9C67.6 75.4 67.6 76 67.6 76.8V78C67.6 78.3 67.5 78.6 67.5 78.8C67 80.7 65.7 81.7 63.6 81.7H62.3C61.4 81.7 60.6 81.7 60 81.6C59.3 81.5 59 81.3 59 81V78.5L59.1 78.3C59.1 78.3 59.2 78.3 59.3 78.3C59.5 78.3 59.6 78.3 59.7 78.3C60.4 78.4 60.9 78.5 61.1 78.5H61.8C63.3 78.5 64 77.8 64 76.3C64 75.8 64 75.5 63.9 75.2C63.6 74.4 63.1 74 62.6 74C61.9 73.9 61.2 73.9 60.6 73.9C60.4 73.9 60.2 73.7 60.2 73.5V71.3C60.2 71.1 60.3 71 60.6 70.9C61.6 70.9 62.3 70.8 62.7 70.8C63.4 70.7 63.8 70.2 63.8 69.3C63.8 68.6 63.5 68 62.8 67.8C62.5 67.7 62.1 67.7 61.5 67.7H60.6C60.1 67.7 59.8 67.7 59.6 67.7ZM74.5 81.5C72.2 81.5 70.7 80.6 69.9 78.8C69.6 78 69.4 77.2 69.4 76.6V69.3C69.4 68.7 69.6 67.9 69.9 67.1C70.5 65.8 71.3 65 72.5 64.6C73.1 64.4 73.8 64.3 74.5 64.3C75.3 64.3 75.9 64.4 76.5 64.6C76.9 64.8 77.3 65 77.7 65.2C78.1 65.5 78.4 65.8 78.6 66.1C78.8 66.5 79 66.9 79.2 67.3C79.5 68.2 79.6 68.9 79.6 69.4V76.4C79.6 76.8 79.5 77.3 79.3 77.9C78.8 79.5 77.9 80.6 76.5 81.1C76 81.5 75.4 81.5 74.5 81.5ZM74.5 78.5C75.6 78.5 76.1 77.9 76.1 76.6V69.3C76.1 68 75.6 67.4 74.5 67.4C73.4 67.4 72.9 68 72.9 69.3V76.6C72.9 77.9 73.5 78.5 74.5 78.5ZM87.9 67.7H84.8V80.8C84.8 81.1 84.7 81.3 84.4 81.3H81.8C81.6 81.3 81.4 81.1 81.4 80.8V65C81.4 64.8 81.6 64.6 81.9 64.6H91C91.3 64.6 91.5 64.7 91.5 65V80.9L91.1 81.3H88.5L88 80.9V67.8L87.9 67.7ZM92.6 80.9V80.8L96.2 65.4C96.3 64.9 96.5 64.7 96.7 64.7H100.2C100.4 64.7 100.6 64.9 100.7 65.3L104.5 81C104.5 81.1 104.5 81.2 104.4 81.3C104.4 81.4 104.3 81.4 104.2 81.4H101.5C101.3 81.4 101.1 81.2 101 80.9C100.9 80.4 100.7 79.8 100.5 79C100.4 78.7 100.4 78.6 100.3 78.6H96.7L96.5 78.9C96.2 79.9 96.1 80.5 96 80.8C95.9 81.2 95.7 81.4 95.5 81.4H92.9C92.6 81.3 92.6 81.2 92.6 80.9ZM98.2 70.6L97.2 75.3H99.5L98.4 70.7C98.5 70.6 98.4 70.5 98.2 70.6C98.2 70.5 98.2 70.5 98.2 70.6ZM111.2 81.5C110.1 81.5 109.3 81.4 108.7 81.3C106.7 80.8 105.7 79.4 105.7 77.2V68.3C105.7 66.6 106.5 65.5 108 64.8C108.8 64.5 109.5 64.3 110.1 64.3H111.3C112.1 64.3 112.7 64.3 113.2 64.4C113.6 64.5 113.8 64.7 113.8 64.9V67.3C113.8 67.5 113.7 67.5 113.5 67.5H113.4C112.9 67.4 112.5 67.3 112.1 67.3C112.1 67.3 111.8 67.3 111.4 67.3C110.6 67.3 110 67.5 109.6 67.8C109.2 68.1 109 68.6 109 69.3V76.1C109 77.2 109.4 77.8 110.1 78.1C110.4 78.2 110.9 78.2 111.5 78.2H112.4C112.6 78.1 112.7 78.1 112.8 78.1C112.9 78.1 113.1 78.1 113.5 78.1C113.8 78.1 113.9 78.1 113.9 78.1L114 78.5V79.3V80.5C114 80.7 113.9 80.9 113.9 81C113.8 81.2 113.5 81.4 113 81.5C112.8 81.5 112.5 81.6 112.1 81.6H111.2V81.5ZM115.9 65L116.3 64.6H118.9L119.3 65V70.3L119.5 70.4H122.4L122.6 70.1V65L123 64.6H125.6L126 65V80.9L125.6 81.3H123L122.6 80.9V74L122.4 73.9H119.3V80.8C119.3 81.1 119.2 81.3 118.9 81.3H116.3C116.1 81.3 115.9 81.1 115.9 80.8V65ZM132.8 81.5C130.5 81.5 129 80.6 128.2 78.8C127.9 78 127.7 77.2 127.7 76.6V69.3C127.7 68.7 127.9 67.9 128.2 67.1C128.8 65.8 129.6 65 130.8 64.6C131.4 64.4 132.1 64.3 132.8 64.3C133.6 64.3 134.2 64.4 134.8 64.6C135.2 64.8 135.6 65 136 65.2C136.4 65.5 136.7 65.8 136.9 66.1C137.1 66.5 137.3 66.9 137.5 67.3C137.8 68.2 137.9 68.9 137.9 69.4V76.4C137.9 76.8 137.8 77.3 137.6 77.9C137.1 79.5 136.2 80.6 134.8 81.1C134.3 81.5 133.6 81.5 132.8 81.5ZM132.8 78.5C133.9 78.5 134.4 77.9 134.4 76.6V69.3C134.4 68 133.9 67.4 132.8 67.4C131.7 67.4 131.2 68 131.2 69.3V76.6C131.2 77.9 131.7 78.5 132.8 78.5ZM145.2 81.5C144.1 81.5 143.3 81.4 142.7 81.3C140.7 80.8 139.7 79.4 139.7 77.2V68.3C139.7 66.6 140.5 65.5 142 64.8C142.8 64.5 143.5 64.3 144.1 64.3H145.3C146.1 64.3 146.7 64.3 147.2 64.4C147.6 64.5 147.8 64.7 147.8 64.9V67.3C147.8 67.5 147.7 67.5 147.5 67.5H147.4C146.9 67.4 146.5 67.3 146.1 67.3C146.1 67.3 145.8 67.3 145.4 67.3C144.6 67.3 144 67.5 143.6 67.8C143.2 68.1 143 68.6 143 69.3V76.1C143 77.2 143.4 77.8 144.1 78.1C144.4 78.2 144.9 78.2 145.5 78.2H146.4C146.6 78.1 146.7 78.1 146.8 78.1C146.9 78.1 147.1 78.1 147.5 78.1C147.8 78.1 147.9 78.1 147.9 78.1L148 78.5V79.3V80.5C148 80.7 147.9 80.9 147.9 81C147.8 81.2 147.5 81.4 147 81.5C146.8 81.5 146.5 81.6 146.1 81.6H145.2V81.5ZM153.1 68L152.9 67.8H149.6C149.4 67.8 149.2 67.7 149.2 67.4V65C149.2 64.8 149.3 64.6 149.4 64.6H160.1C160.3 64.6 160.3 64.7 160.3 65V67.4C160.3 67.7 160.2 67.8 160.1 67.8H156.6L156.4 68V81L156 81.4H153.4L153 81V68H153.1ZM161.7 65L162.1 64.6H164.7L165 65V70.4L165.2 70.5C166.4 70.5 167.2 70.6 167.8 70.6C168.2 70.6 168.6 70.7 169 70.8C170.6 71.3 171.7 72.5 172.2 74.4C172.3 74.7 172.4 75.3 172.4 76C172.4 76.9 172.3 77.6 172.1 78.1C171.4 80.1 169.9 81.2 167.7 81.2H162.1C161.8 81.2 161.6 81.1 161.6 80.8V65H161.7ZM167.1 73.8H165.1V78H167.3C167.6 78 168 77.7 168.4 77C168.6 76.7 168.6 76.4 168.6 75.9C168.6 75.6 168.6 75.3 168.5 75C168.2 74.2 167.7 73.8 167.1 73.8Z" fill="#1D1D1B"/>
</g>
<defs>
<clipPath id="clip0_211_255">
<rect width="172.4" height="81.5" fill="white"/>
</clipPath>
</defs>
</svg>
