<svg width="127" height="60" viewBox="0 0 127 60" fill="none" xmlns="http://www.w3.org/2000/svg">
<g clip-path="url(#clip0_276_2557)">
<path fill-rule="evenodd" clip-rule="evenodd" d="M58.3803 7.36196V41.5951H51.0183V7.36196H38.2085V0H86.6502V7.36196H58.3803ZM68.9815 17.9632H86.7238V10.6012H61.5459C61.5459 20.908 61.5459 31.2883 61.5459 41.5951H78.4784C84.0735 41.5951 88.6379 37.0307 88.6379 31.4356C88.6379 25.8405 84.0735 21.2761 78.4784 21.2761H68.9079V17.9632H68.9815ZM68.9815 28.5644V34.1595H78.552C80.0981 34.1595 81.3496 32.908 81.3496 31.362C81.3496 29.816 80.0981 28.5644 78.552 28.5644H68.9815Z" fill="#E20613"/>
<path fill-rule="evenodd" clip-rule="evenodd" d="M2.87117 50.0614L2.72393 49.9141H0.294479C0.147239 49.9141 0 49.8405 0 49.6196V47.8528C0 47.7055 0.0736196 47.5583 0.147239 47.5583H8.09816C8.2454 47.5583 8.2454 47.6319 8.2454 47.8528V49.6196C8.2454 49.8405 8.17178 49.9141 8.09816 49.9141H5.52147L5.37423 50.0614V59.6319L5.07975 59.9264H3.16564L2.87117 59.6319V50.0614ZM8.9816 47.8528L9.27607 47.5583H15.4601L15.7546 47.8528V49.4724C15.7546 49.6933 15.681 49.7669 15.4601 49.7669H11.6319L11.5583 49.9141V52.2699H14.5767L14.7975 52.4908V54.3313L14.5767 54.5522H11.7055L11.6319 54.6994V57.6442H15.8282L16.0491 57.865V59.7055C16.0491 59.8528 15.9755 59.8528 15.7546 59.8528H9.34969C9.20245 59.8528 9.05522 59.7055 9.05522 59.4847V47.8528H8.9816ZM17.4479 47.8528C17.4479 47.7055 17.5215 47.6319 17.6687 47.6319H19.6564C19.8037 47.6319 19.9509 47.7791 20.0982 48.1472C20.319 48.589 20.4663 48.9571 20.6135 49.2515C20.7607 49.546 20.8344 49.8405 20.9816 50.0614L21.1288 50.2086L22.3067 47.9264L22.6012 47.6319H24.8098C24.9571 47.6319 25.0307 47.7055 25.0307 47.9264C25.0307 48 25.0307 48.1472 24.9571 48.2945L22.6748 53.227L25.3252 59.3374C25.3988 59.5583 25.3988 59.6319 25.3988 59.7055C25.3988 59.8528 25.3252 59.9264 25.2515 59.9264H23.1166C22.9693 59.9264 22.8957 59.8528 22.8221 59.7791L21.2761 56.6135C21.2761 56.5399 21.2025 56.5399 21.1288 56.5399L19.5828 59.7791C19.5092 59.9264 19.4356 59.9264 19.2883 59.9264H17.227C17.0798 59.9264 17.0798 59.8528 17.0798 59.7055C17.0798 59.5583 17.0798 59.411 17.1534 59.2638L19.7301 53.5215V53.3006C19.7301 53.0798 19.7301 52.9325 19.6564 52.7853C19.362 52.1227 19.1411 51.5337 18.9202 50.9448C18.6994 50.3558 18.4785 49.8405 18.2577 49.3252C18.0368 48.8098 17.8896 48.5153 17.8896 48.4417C17.4479 48.1472 17.4479 48 17.4479 47.8528ZM26.0614 47.8528L26.3558 47.5583H32.908L33.0552 47.7055V49.546L32.908 49.7669H28.7117L28.638 49.9141V51.9018C29.3742 51.9018 29.9632 51.9755 30.3313 51.9755C30.5521 51.9755 30.8466 52.0491 31.2883 52.1227C33.1288 52.638 34.0123 53.8896 34.0123 55.8037C34.0123 56.6871 33.7914 57.4233 33.3497 58.1595C32.6871 59.2638 31.6564 59.7791 30.3313 59.7791H26.4294C26.2086 59.7791 26.0614 59.7055 26.0614 59.4847V47.8528ZM30.0368 54.3313H28.5644V57.4969L28.638 57.5706C28.638 57.5706 28.8589 57.5706 29.1534 57.5706C29.5951 57.5706 29.816 57.5706 29.8896 57.5706C30.184 57.5706 30.5521 57.3497 30.8466 56.908C31.0675 56.6871 31.1411 56.3926 31.1411 55.8773C31.1411 55.4356 31.0675 55.1411 30.8466 54.9203C30.6258 54.5522 30.3313 54.3313 30.0368 54.3313ZM35.3374 47.8528L35.6319 47.5583H41.816L42.1104 47.8528V49.4724C42.1104 49.6933 42.0368 49.7669 41.816 49.7669H37.9877L37.9141 49.9141V52.2699H40.9325L41.1534 52.4908V54.3313L40.9325 54.5522H38.0614L37.9877 54.6994V57.6442H42.184L42.4049 57.865V59.7055C42.4049 59.8528 42.3313 59.8528 42.1104 59.8528H35.7055C35.5583 59.8528 35.411 59.7055 35.411 59.4847V47.8528H35.3374ZM43.8773 49.8405C43.7301 49.8405 43.5828 49.7669 43.5828 49.546V47.8528C43.5828 47.7055 43.7301 47.5583 44.0982 47.4847C44.1718 47.4847 44.319 47.4111 44.3926 47.4111C44.4663 47.4111 44.5399 47.4111 44.6135 47.4111H45.6442H46.6748C46.9693 47.4111 47.2638 47.4847 47.5583 47.6319C48.3681 47.8528 49.0307 48.4417 49.3988 49.3252C49.4724 49.4724 49.546 49.6933 49.546 49.9141C49.546 50.135 49.6196 50.4295 49.6196 50.7976C49.6196 51.9755 49.2515 52.7853 48.4417 53.3742C48.4417 53.4479 48.5153 53.4479 48.5153 53.4479C48.9571 53.816 49.1779 54.0368 49.3252 54.1841C49.4724 54.4049 49.6196 54.6994 49.6933 55.1411C49.7669 55.5092 49.7669 55.9509 49.7669 56.5399V57.4233C49.7669 57.6442 49.6933 57.865 49.6933 58.0123C49.3252 59.4111 48.3681 60.1472 46.8221 60.1472H45.865C45.2025 60.1472 44.6135 60.1472 44.1718 60.0736C43.6564 60 43.4356 59.8528 43.4356 59.6319V57.7914L43.5092 57.6442C43.5092 57.6442 43.5828 57.6442 43.6564 57.6442C43.8037 57.6442 43.8773 57.6442 43.9509 57.6442C44.4663 57.7178 44.8344 57.7914 44.9816 57.7914H45.4969C46.6012 57.7914 47.1166 57.2761 47.1166 56.1718C47.1166 55.8037 47.1166 55.5828 47.0429 55.362C46.8221 54.773 46.454 54.4785 46.0859 54.4785C45.5706 54.4049 45.0552 54.4049 44.6135 54.4049C44.4663 54.4049 44.319 54.2577 44.319 54.1104V52.4908C44.319 52.3436 44.3926 52.2699 44.6135 52.1963C45.3497 52.1963 45.865 52.1227 46.1595 52.1227C46.6748 52.0491 46.9693 51.681 46.9693 51.0184C46.9693 50.5031 46.7485 50.0614 46.2331 49.9141C46.0123 49.8405 45.7178 49.8405 45.2761 49.8405H44.6135C44.2454 49.8405 44.0245 49.8405 43.8773 49.8405ZM54.8466 60C53.1534 60 52.0491 59.3374 51.4601 58.0123C51.2393 57.4233 51.092 56.8344 51.092 56.3926V51.0184C51.092 50.5767 51.2393 49.9877 51.4601 49.3988C51.9018 48.4417 52.4908 47.8528 53.3742 47.5583C53.816 47.411 54.3313 47.3374 54.8466 47.3374C55.4356 47.3374 55.8773 47.411 56.319 47.5583C56.6135 47.7055 56.908 47.8528 57.2025 48C57.4969 48.2209 57.7178 48.4417 57.865 48.6626C58.0123 48.9571 58.1595 49.2515 58.3067 49.546C58.5276 50.2086 58.6012 50.7239 58.6012 51.092V56.2454C58.6012 56.5399 58.5276 56.908 58.3804 57.3497C58.0123 58.5276 57.3497 59.3374 56.319 59.7055C55.9509 60 55.5092 60 54.8466 60ZM54.8466 57.7914C55.6564 57.7914 56.0245 57.3497 56.0245 56.3926V51.0184C56.0245 50.0614 55.6564 49.6196 54.8466 49.6196C54.0368 49.6196 53.6687 50.0614 53.6687 51.0184V56.3926C53.6687 57.3497 54.1104 57.7914 54.8466 57.7914ZM64.7117 49.8405H62.4295V59.4847C62.4295 59.7055 62.3558 59.8528 62.135 59.8528H60.2209C60.0736 59.8528 59.9264 59.7055 59.9264 59.4847V47.8528C59.9264 47.7055 60.0736 47.5583 60.2945 47.5583H66.9939C67.2147 47.5583 67.362 47.6319 67.362 47.8528V59.5583L67.0675 59.8528H65.1534L64.7853 59.5583V49.9141L64.7117 49.8405ZM68.1718 59.5583V59.4847L70.8221 48.1472C70.8957 47.7791 71.0429 47.6319 71.1902 47.6319H73.7669C73.9141 47.6319 74.0613 47.7792 74.135 48.0736L76.9325 59.6319C76.9325 59.7055 76.9325 59.7791 76.8589 59.8528C76.8589 59.9264 76.7853 59.9264 76.7117 59.9264H74.7239C74.5767 59.9264 74.4294 59.7791 74.3558 59.5583C74.2822 59.1902 74.135 58.7485 73.9877 58.1595C73.9141 57.9387 73.9141 57.865 73.8405 57.865H71.1902L71.0429 58.0859C70.8221 58.8221 70.7485 59.2638 70.6748 59.4847C70.6012 59.7791 70.454 59.9264 70.3068 59.9264H68.3926C68.1718 59.8528 68.1718 59.7791 68.1718 59.5583ZM72.2945 51.9755L71.5583 55.4356H73.2515L72.4417 52.0491C72.5153 51.9755 72.4417 51.9018 72.2945 51.9755C72.2945 51.9018 72.2945 51.9018 72.2945 51.9755ZM81.865 60C81.0552 60 80.4663 59.9264 80.0245 59.8528C78.5521 59.4847 77.816 58.454 77.816 56.8344V50.2822C77.816 49.0307 78.4049 48.2209 79.5092 47.7055C80.0982 47.4847 80.6135 47.3374 81.0552 47.3374H81.9387C82.5276 47.3374 82.9693 47.3374 83.3374 47.4111C83.6319 47.4847 83.7791 47.6319 83.7791 47.7791V49.546C83.7791 49.6933 83.7055 49.6933 83.5583 49.6933H83.4847C83.1166 49.6196 82.8221 49.546 82.5276 49.546C82.5276 49.546 82.3068 49.546 82.0123 49.546C81.4233 49.546 80.9816 49.6933 80.6871 49.9141C80.3926 50.135 80.2454 50.5031 80.2454 51.0184V56.0245C80.2454 56.8344 80.5399 57.2761 81.0552 57.4969C81.2761 57.5706 81.6442 57.5706 82.0859 57.5706H82.7485C82.8957 57.4969 82.9693 57.4969 83.0429 57.4969C83.1166 57.4969 83.2638 57.4969 83.5583 57.4969C83.7791 57.4969 83.8528 57.4969 83.8528 57.4969L83.9264 57.7914V58.3804V59.2638C83.9264 59.411 83.8528 59.5583 83.8528 59.6319C83.7791 59.7791 83.5583 59.9264 83.1902 60C83.0429 60 82.8221 60.0736 82.5276 60.0736H81.865V60ZM85.3252 47.8528L85.6196 47.5583H87.5337L87.8282 47.8528V51.7546L87.9755 51.8282H90.1104L90.2577 51.6074V47.8528L90.5521 47.5583H92.4663L92.7607 47.8528V59.5583L92.4663 59.8528H90.5521L90.2577 59.5583V54.4785L90.1104 54.4049H87.8282V59.4847C87.8282 59.7055 87.7546 59.8528 87.5337 59.8528H85.6196C85.4724 59.8528 85.3252 59.7055 85.3252 59.4847V47.8528ZM97.7669 60C96.0736 60 94.9693 59.3374 94.3804 58.0123C94.1595 57.4233 94.0123 56.8344 94.0123 56.3926V51.0184C94.0123 50.5767 94.1595 49.9877 94.3804 49.3988C94.8221 48.4417 95.411 47.8528 96.2945 47.5583C96.7362 47.411 97.2515 47.3374 97.7669 47.3374C98.3558 47.3374 98.7976 47.411 99.2393 47.5583C99.5337 47.7055 99.8282 47.8528 100.123 48C100.417 48.2209 100.638 48.4417 100.785 48.6626C100.933 48.9571 101.08 49.2515 101.227 49.546C101.448 50.2086 101.521 50.7239 101.521 51.092V56.2454C101.521 56.5399 101.448 56.908 101.301 57.3497C100.933 58.5276 100.27 59.3374 99.2393 59.7055C98.8712 60 98.3558 60 97.7669 60ZM97.7669 57.7914C98.5767 57.7914 98.9448 57.3497 98.9448 56.3926V51.0184C98.9448 50.0614 98.5767 49.6196 97.7669 49.6196C96.9571 49.6196 96.589 50.0614 96.589 51.0184V56.3926C96.589 57.3497 96.9571 57.7914 97.7669 57.7914ZM106.896 60C106.086 60 105.497 59.9264 105.055 59.8528C103.583 59.4847 102.847 58.454 102.847 56.8344V50.2822C102.847 49.0307 103.436 48.2209 104.54 47.7055C105.129 47.4847 105.644 47.3374 106.086 47.3374H106.969C107.558 47.3374 108 47.3374 108.368 47.4111C108.663 47.4847 108.81 47.6319 108.81 47.7791V49.546C108.81 49.6933 108.736 49.6933 108.589 49.6933H108.515C108.147 49.6196 107.853 49.546 107.558 49.546C107.558 49.546 107.337 49.546 107.043 49.546C106.454 49.546 106.012 49.6933 105.718 49.9141C105.423 50.135 105.276 50.5031 105.276 51.0184V56.0245C105.276 56.8344 105.571 57.2761 106.086 57.4969C106.307 57.5706 106.675 57.5706 107.117 57.5706H107.779C107.926 57.4969 108 57.4969 108.074 57.4969C108.147 57.4969 108.294 57.4969 108.589 57.4969C108.81 57.4969 108.883 57.4969 108.883 57.4969L108.957 57.7914V58.3804V59.2638C108.957 59.411 108.883 59.5583 108.883 59.6319C108.81 59.7791 108.589 59.9264 108.221 60C108.074 60 107.853 60.0736 107.558 60.0736H106.896V60ZM112.712 50.0614L112.564 49.9141H110.135C109.988 49.9141 109.84 49.8405 109.84 49.6196V47.8528C109.84 47.7055 109.914 47.5583 109.988 47.5583H117.865C118.012 47.5583 118.012 47.6319 118.012 47.8528V49.6196C118.012 49.8405 117.939 49.9141 117.865 49.9141H115.288L115.141 50.0614V59.6319L114.847 59.9264H112.933L112.638 59.6319V50.0614H112.712ZM119.043 47.8528L119.337 47.5583H121.252L121.472 47.8528V51.8282L121.62 51.9018C122.503 51.9018 123.092 51.9755 123.534 51.9755C123.828 51.9755 124.123 52.0491 124.417 52.1227C125.595 52.4908 126.405 53.3742 126.773 54.773C126.847 54.9939 126.92 55.4356 126.92 55.9509C126.92 56.6135 126.847 57.1288 126.699 57.4969C126.184 58.9693 125.08 59.7791 123.46 59.7791H119.337C119.117 59.7791 118.969 59.7055 118.969 59.4847V47.8528H119.043ZM123.018 54.3313H121.546V57.4233H123.166C123.387 57.4233 123.681 57.2025 123.975 56.6871C124.123 56.4663 124.123 56.2454 124.123 55.8773C124.123 55.6564 124.123 55.4356 124.049 55.2147C123.828 54.6258 123.46 54.3313 123.018 54.3313Z" fill="#1D1D1B"/>
</g>
<defs>
<clipPath id="clip0_276_2557">
<rect width="126.92" height="60" fill="white"/>
</clipPath>
</defs>
</svg>
