<svg width="150" height="16" viewBox="0 0 150 16" fill="none" xmlns="http://www.w3.org/2000/svg">
<path fill-rule="evenodd" clip-rule="evenodd" d="M3.39327 3.21926L3.21926 3.04524H0.348028C0.174014 3.04524 0 2.95824 0 2.69721V0.609046C0 0.435032 0.087007 0.261017 0.174014 0.261017H9.57077C9.74478 0.261017 9.74478 0.348025 9.74478 0.609046V2.69721C9.74478 2.95824 9.65777 3.04524 9.57077 3.04524H6.52552L6.35151 3.21926V14.5302L6.00348 14.8782H3.7413L3.39327 14.5302V3.21926ZM10.6148 0.609046L10.9629 0.261017H18.2715L18.6195 0.609046V2.5232C18.6195 2.78422 18.5325 2.87123 18.2715 2.87123H13.7471L13.6601 3.04524V5.82946H17.2274L17.4884 6.09049V8.26566L17.2274 8.52668H13.8341L13.7471 8.7007V12.181H18.7065L18.9675 12.442V14.6172C18.9675 14.7912 18.8805 14.7912 18.6195 14.7912H11.0499C10.8759 14.7912 10.7019 14.6172 10.7019 14.3562V0.609046H10.6148ZM20.6207 0.609046C20.6207 0.435032 20.7077 0.348023 20.8817 0.348023H23.2309C23.4049 0.348023 23.5789 0.522041 23.7529 0.957075C24.0139 1.47912 24.1879 1.91415 24.3619 2.26218C24.536 2.61021 24.623 2.95823 24.797 3.21926L24.971 3.39327L26.3631 0.696052L26.7111 0.348023H29.3213C29.4954 0.348023 29.5824 0.435031 29.5824 0.696052C29.5824 0.783059 29.5824 0.957073 29.4954 1.13109L26.7981 6.96056L29.9304 14.1821C30.0174 14.4432 30.0174 14.5302 30.0174 14.6172C30.0174 14.7912 29.9304 14.8782 29.8434 14.8782H27.3202C27.1462 14.8782 27.0592 14.7912 26.9722 14.7042L25.145 10.9629C25.145 10.8759 25.058 10.8759 24.971 10.8759L23.1439 14.7042C23.0568 14.8782 22.9698 14.8782 22.7958 14.8782H20.3596C20.1856 14.8782 20.1856 14.7912 20.1856 14.6172C20.1856 14.4432 20.1856 14.2691 20.2726 14.0951L23.3179 7.30858V7.04756C23.3179 6.78654 23.3179 6.61252 23.2309 6.43851C22.8828 5.65545 22.6218 4.95939 22.3608 4.26334C22.0998 3.56728 21.8387 2.95823 21.5777 2.34919C21.3167 1.74014 21.1427 1.39211 21.1427 1.3051C20.6206 0.957077 20.6207 0.78306 20.6207 0.609046ZM30.8005 0.609046L31.1485 0.261017H38.8921L39.0661 0.435035V2.61021L38.8921 2.87123H33.9327L33.8457 3.04524V5.39443C34.7158 5.39443 35.4118 5.48144 35.8469 5.48144C36.1079 5.48144 36.4559 5.56845 36.978 5.65545C39.1531 6.2645 40.1972 7.74362 40.1972 10.0058C40.1972 11.0499 39.9362 11.92 39.4142 12.79C38.6311 14.0951 37.413 14.7042 35.8469 14.7042H31.2355C30.9745 14.7042 30.8005 14.6172 30.8005 14.3562V0.609046ZM35.4988 8.26566H33.7587V12.007L33.8457 12.094C33.8457 12.094 34.1067 12.094 34.4548 12.094C34.9768 12.094 35.2378 12.094 35.3248 12.094C35.6729 12.094 36.1079 11.8329 36.4559 11.3109C36.7169 11.0499 36.8039 10.7019 36.8039 10.0928C36.8039 9.57077 36.7169 9.22274 36.4559 8.96171C36.1949 8.52668 35.8469 8.26566 35.4988 8.26566ZM41.7633 0.609046L42.1114 0.261017H49.42L49.768 0.609046V2.5232C49.768 2.78422 49.681 2.87123 49.42 2.87123H44.8956L44.8086 3.04524V5.82946H48.3759L48.6369 6.09049V8.26566L48.3759 8.52668H44.9826L44.8956 8.7007V12.181H49.855L50.116 12.442V14.6172C50.116 14.7912 50.029 14.7912 49.768 14.7912H42.1984C42.0244 14.7912 41.8503 14.6172 41.8503 14.3562V0.609046H41.7633ZM51.8561 2.95823C51.6821 2.95823 51.5081 2.87123 51.5081 2.61021V0.609046C51.5081 0.435032 51.6821 0.261018 52.1172 0.174011C52.2042 0.174011 52.3782 0.0870056 52.4652 0.0870056C52.5522 0.0870056 52.6392 0.0870056 52.7262 0.0870056H53.9443H55.1624C55.5104 0.0870056 55.8585 0.174009 56.2065 0.348023C57.1636 0.609044 57.9466 1.3051 58.3817 2.34919C58.4687 2.5232 58.5557 2.78422 58.5557 3.04524C58.5557 3.30627 58.6427 3.65429 58.6427 4.08933C58.6427 5.48144 58.2077 6.43851 57.2506 7.13457C57.2506 7.22158 57.3376 7.22157 57.3376 7.22157C57.8596 7.65661 58.1207 7.91763 58.2947 8.09164C58.4687 8.35267 58.6427 8.7007 58.7297 9.22274C58.8167 9.65777 58.8167 10.1798 58.8167 10.8759V11.92C58.8167 12.181 58.7297 12.442 58.7297 12.616C58.2947 14.2691 57.1636 15.1392 55.3364 15.1392H54.2053C53.4223 15.1392 52.7262 15.1392 52.2042 15.0522C51.5951 14.9652 51.3341 14.7912 51.3341 14.5302V12.355L51.4211 12.181C51.4211 12.181 51.5081 12.181 51.5951 12.181C51.7691 12.181 51.8562 12.181 51.9432 12.181C52.5522 12.268 52.9872 12.355 53.1613 12.355H53.7703C55.0754 12.355 55.6845 11.7459 55.6845 10.4408C55.6845 10.0058 55.6845 9.74478 55.5975 9.48375C55.3364 8.7877 54.9014 8.43967 54.4664 8.43967C53.8573 8.35267 53.2483 8.35267 52.7262 8.35267C52.5522 8.35267 52.3782 8.17865 52.3782 8.00464V6.09049C52.3782 5.91647 52.4652 5.82947 52.7262 5.74246C53.5963 5.74246 54.2053 5.65545 54.5534 5.65545C55.1624 5.56845 55.5104 5.13341 55.5104 4.35035C55.5104 3.7413 55.2494 3.21926 54.6404 3.04524C54.3794 2.95824 54.0313 2.95823 53.5093 2.95823H52.7262C52.2912 2.95823 52.0302 2.95823 51.8561 2.95823ZM64.8202 14.9652C62.819 14.9652 61.5139 14.1821 60.8179 12.616C60.5568 11.92 60.3828 11.2239 60.3828 10.7019V4.35035C60.3828 3.82831 60.5568 3.13225 60.8179 2.43619C61.3399 1.3051 62.036 0.609045 63.08 0.261017C63.6021 0.087003 64.2111 0 64.8202 0C65.5162 0 66.0383 0.087003 66.5603 0.261017C66.9084 0.435031 67.2564 0.609044 67.6044 0.783057C67.9524 1.04408 68.2135 1.3051 68.3875 1.56612C68.5615 1.91415 68.7355 2.26218 68.9095 2.61021C69.1705 3.39327 69.2575 4.00232 69.2575 4.43735V10.5278C69.2575 10.8759 69.1705 11.3109 68.9965 11.8329C68.5615 13.2251 67.7784 14.1821 66.5603 14.6172C66.1253 14.9652 65.6032 14.9652 64.8202 14.9652ZM64.8202 12.355C65.7773 12.355 66.2123 11.8329 66.2123 10.7019V4.35035C66.2123 3.21926 65.7773 2.69721 64.8202 2.69721C63.8631 2.69721 63.4281 3.21926 63.4281 4.35035V10.7019C63.4281 11.8329 63.9501 12.355 64.8202 12.355ZM76.4791 2.95823H73.7819V14.3562C73.7819 14.6172 73.6949 14.7912 73.4339 14.7912H71.1717C70.9977 14.7912 70.8237 14.6172 70.8237 14.3562V0.609046C70.8237 0.435032 70.9977 0.261017 71.2587 0.261017H79.1763C79.4374 0.261017 79.6114 0.348025 79.6114 0.609046V14.4432L79.2633 14.7912H77.0012L76.5661 14.4432V3.04524L76.4791 2.95823ZM80.5684 14.4432V14.3562L83.7007 0.957075C83.7877 0.522041 83.9617 0.348023 84.1357 0.348023H87.181C87.355 0.348023 87.529 0.522042 87.616 0.87007L90.9223 14.5302C90.9223 14.6172 90.9223 14.7042 90.8353 14.7912C90.8353 14.8782 90.7483 14.8782 90.6613 14.8782H88.3121C88.1381 14.8782 87.964 14.7042 87.877 14.4432C87.79 14.0081 87.616 13.4861 87.442 12.79C87.355 12.529 87.355 12.442 87.268 12.442H84.1357L83.9617 12.703C83.7007 13.5731 83.6137 14.0951 83.5267 14.3562C83.4397 14.7042 83.2657 14.8782 83.0916 14.8782H80.8295C80.5684 14.7912 80.5684 14.7042 80.5684 14.4432ZM85.4408 5.48144L84.5708 9.57077H86.5719L85.6149 5.56844C85.7019 5.48143 85.6148 5.39443 85.4408 5.48144C85.4408 5.39443 85.4408 5.39443 85.4408 5.48144ZM96.7517 14.9652C95.7947 14.9652 95.0986 14.8782 94.5766 14.7912C92.8364 14.3562 91.9664 13.138 91.9664 11.2239V3.48028C91.9664 2.00116 92.6624 1.04408 93.9675 0.435035C94.6636 0.174014 95.2726 0 95.7947 0H96.8388C97.5348 0 98.0568 -1.32892e-06 98.4919 0.0870056C98.8399 0.174013 99.0139 0.348027 99.0139 0.522041V2.61021C99.0139 2.78422 98.9269 2.78422 98.7529 2.78422H98.6659C98.2309 2.69721 97.8828 2.61021 97.5348 2.61021C97.5348 2.61021 97.2738 2.61021 96.9258 2.61021C96.2297 2.61021 95.7077 2.78422 95.3596 3.04524C95.0116 3.30627 94.8376 3.7413 94.8376 4.35035V10.2668C94.8376 11.2239 95.1856 11.7459 95.7947 12.007C96.0557 12.094 96.4907 12.094 97.0128 12.094H97.7958C97.9698 12.007 98.0568 12.007 98.1439 12.007C98.2309 12.007 98.4049 12.007 98.7529 12.007C99.0139 12.007 99.1009 12.007 99.1009 12.007L99.1879 12.355V13.051V14.0951C99.1879 14.2691 99.1009 14.4432 99.1009 14.5302C99.0139 14.7042 98.7529 14.8782 98.3179 14.9652C98.1439 14.9652 97.8828 15.0522 97.5348 15.0522H96.7517V14.9652ZM100.841 0.609046L101.189 0.261017H103.451L103.799 0.609046V5.22042L103.973 5.30742H106.497L106.671 5.0464V0.609046L107.019 0.261017H109.281L109.629 0.609046V14.4432L109.281 14.7912H107.019L106.671 14.4432V8.43967L106.497 8.35267H103.799V14.3562C103.799 14.6172 103.712 14.7912 103.451 14.7912H101.189C101.015 14.7912 100.841 14.6172 100.841 14.3562V0.609046ZM115.545 14.9652C113.544 14.9652 112.239 14.1821 111.543 12.616C111.282 11.92 111.108 11.2239 111.108 10.7019V4.35035C111.108 3.82831 111.282 3.13225 111.543 2.43619C112.065 1.3051 112.761 0.609045 113.805 0.261017C114.327 0.087003 114.936 0 115.545 0C116.241 0 116.763 0.087003 117.285 0.261017C117.633 0.435031 117.981 0.609044 118.329 0.783057C118.677 1.04408 118.939 1.3051 119.113 1.56612C119.287 1.91415 119.461 2.26218 119.635 2.61021C119.896 3.39327 119.983 4.00232 119.983 4.43735V10.5278C119.983 10.8759 119.896 11.3109 119.722 11.8329C119.287 13.2251 118.503 14.1821 117.285 14.6172C116.85 14.9652 116.241 14.9652 115.545 14.9652ZM115.545 12.355C116.502 12.355 116.937 11.8329 116.937 10.7019V4.35035C116.937 3.21926 116.502 2.69721 115.545 2.69721C114.588 2.69721 114.153 3.21926 114.153 4.35035V10.7019C114.153 11.8329 114.588 12.355 115.545 12.355ZM126.334 14.9652C125.377 14.9652 124.681 14.8782 124.159 14.7912C122.419 14.3562 121.549 13.138 121.549 11.2239V3.48028C121.549 2.00116 122.245 1.04408 123.55 0.435035C124.246 0.174014 124.855 0 125.377 0H126.421C127.117 0 127.639 -1.32892e-06 128.074 0.0870056C128.422 0.174013 128.596 0.348027 128.596 0.522041V2.61021C128.596 2.78422 128.509 2.78422 128.335 2.78422H128.248C127.813 2.69721 127.465 2.61021 127.117 2.61021C127.117 2.61021 126.856 2.61021 126.508 2.61021C125.812 2.61021 125.29 2.78422 124.942 3.04524C124.594 3.30627 124.42 3.7413 124.42 4.35035V10.2668C124.42 11.2239 124.768 11.7459 125.377 12.007C125.638 12.094 126.073 12.094 126.595 12.094H127.378C127.552 12.007 127.639 12.007 127.726 12.007C127.813 12.007 127.987 12.007 128.335 12.007C128.596 12.007 128.683 12.007 128.683 12.007L128.77 12.355V13.051V14.0951C128.77 14.2691 128.683 14.4432 128.683 14.5302C128.596 14.7042 128.335 14.8782 127.9 14.9652C127.726 14.9652 127.465 15.0522 127.117 15.0522H126.334V14.9652ZM133.208 3.21926L133.034 3.04524H130.162C129.988 3.04524 129.814 2.95824 129.814 2.69721V0.609046C129.814 0.435032 129.901 0.261017 129.988 0.261017H139.298C139.472 0.261017 139.472 0.348025 139.472 0.609046V2.69721C139.472 2.95824 139.385 3.04524 139.298 3.04524H136.253L136.079 3.21926V14.5302L135.731 14.8782H133.469L133.121 14.5302V3.21926H133.208ZM140.69 0.609046L141.038 0.261017H143.3L143.561 0.609046V5.30742L143.735 5.39443C144.78 5.39443 145.476 5.48144 145.998 5.48144C146.346 5.48144 146.694 5.56845 147.042 5.65545C148.434 6.09049 149.391 7.13457 149.826 8.7877C149.913 9.04872 150 9.57076 150 10.1798C150 10.9629 149.913 11.5719 149.739 12.007C149.13 13.7471 147.825 14.7042 145.911 14.7042H141.038C140.777 14.7042 140.603 14.6172 140.603 14.3562V0.609046H140.69ZM145.389 8.26566H143.649V11.92H145.563C145.824 11.92 146.172 11.6589 146.52 11.0499C146.694 10.7889 146.694 10.5278 146.694 10.0928C146.694 9.83179 146.694 9.57076 146.607 9.30974C146.346 8.61369 145.911 8.26566 145.389 8.26566Z" fill="#E50000"/>
</svg>
