<svg width="18" height="20" viewBox="0 0 18 20" fill="none" xmlns="http://www.w3.org/2000/svg">
<path d="M12.5 12.9738H11.71L11.43 12.7038C12.41 11.5638 13 10.0838 13 8.47375C13 4.88375 10.09 1.97375 6.5 1.97375C2.91 1.97375 0 4.88375 0 8.47375C0 12.0638 2.91 14.9738 6.5 14.9738C8.11 14.9738 9.59 14.3838 10.73 13.4038L11 13.6838V14.4738L16 19.4638L17.49 17.9738L12.5 12.9738ZM6.5 12.9738C4.01 12.9738 2 10.9638 2 8.47375C2 5.98376 4.01 3.97375 6.5 3.97375C8.99 3.97375 11 5.98376 11 8.47375C11 10.9638 8.99 12.9738 6.5 12.9738Z" fill="black"/>
<path d="M6.19618 11.4034V5.77841H7.15072V11.4034H6.19618ZM3.86095 9.06818V8.11364H9.48595V9.06818H3.86095Z" fill="black"/>
</svg>
