<svg width="43" height="30" viewBox="0 0 43 30" fill="none" xmlns="http://www.w3.org/2000/svg">
<g clip-path="url(#clip0_270_1268)">
<path fill-rule="evenodd" clip-rule="evenodd" d="M17 29.9248C16.5016 29.9749 16.0009 30 15.5 30C11.5218 30 7.70644 28.4196 4.8934 25.6066C2.08035 22.7936 0.5 18.9782 0.5 15C0.5 11.0218 2.08035 7.20644 4.8934 4.3934C7.70644 1.58035 11.5218 0 15.5 0C16.0009 -1.44215e-08 16.5016 0.0250942 17 0.0751884V4.57519C16.5024 4.51435 16.0012 4.48923 15.5 4.5C12.7152 4.5 10.0445 5.60625 8.07538 7.57538C6.10625 9.54451 5 12.2152 5 15C5 17.7848 6.10625 20.4555 8.07538 22.4246C10.0445 24.3938 12.7152 25.5 15.5 25.5C16.0012 25.5108 16.5024 25.4856 17 25.4248V29.9248Z" fill="black"/>
<path fill-rule="evenodd" clip-rule="evenodd" d="M42.5 29.9248C42.0016 29.9749 41.5009 30 41 30C37.0218 30 33.2064 28.4196 30.3934 25.6066C27.5804 22.7936 26 18.9782 26 15C26 11.0218 27.5804 7.20644 30.3934 4.3934C33.2064 1.58035 37.0218 0 41 0C41.5009 -1.44215e-08 42.0016 0.0250942 42.5 0.0751884V4.57519C42.0024 4.51435 41.5012 4.48923 41 4.5C38.606 4.4998 36.2837 5.31773 34.4183 6.8182C32.5528 8.31866 31.2561 10.4116 30.743 12.75H39.5V17.25H30.743C31.2561 19.5884 32.5528 21.6813 34.4183 23.1818C36.2837 24.6823 38.606 25.5002 41 25.5C41.5012 25.5108 42.0024 25.4856 42.5 25.4248V29.9248Z" fill="black"/>
</g>
<defs>
<clipPath id="clip0_270_1268">
<rect width="42" height="30" fill="white" transform="translate(0.5)"/>
</clipPath>
</defs>
</svg>
