<svg width="39" height="30" viewBox="0 0 39 30" fill="none" xmlns="http://www.w3.org/2000/svg">
<g clip-path="url(#clip0_270_1271)">
<path fill-rule="evenodd" clip-rule="evenodd" d="M30.709 11.7205V14.6798H32.8612V18.1764H37.1645V14.6798H39.0477V11.7205H30.709Z" fill="black"/>
<path fill-rule="evenodd" clip-rule="evenodd" d="M35.1258 9.4565V3.74411C20.6149 -4.41589 0.19043 1.24172 0.19043 14.788C0.19043 29.8933 20.6142 33.6652 35.1258 26.3204V20.3367C29.7512 22.2404 20.6142 21.6965 20.6142 14.8963C20.6142 8.09606 28.5893 7.14585 35.1258 9.4565ZM11.7068 17.0674C11.1688 17.0674 10.8998 17.0674 10.3617 16.7983V13.6783C10.4843 13.7436 10.6308 13.8394 11.7068 13.8394C12.7826 13.8394 14.1277 13.0327 14.1277 11.4186C14.1277 9.80443 12.8296 8.99769 11.7068 8.99769C10.6001 8.99769 9.28565 10.0735 9.28565 11.4186L9.22597 23.7998C7.82119 23.7456 6.36065 22.9118 6.09586 21.3942L6.09163 11.0106C6.10956 8.26856 8.57967 5.77009 11.5872 5.77009C14.6162 5.77009 17.355 8.19096 17.355 11.4763C17.3553 14.7613 14.3967 17.0674 11.7068 17.0674Z" fill="black"/>
</g>
<defs>
<clipPath id="clip0_270_1271">
<rect width="38.8043" height="30" fill="white" transform="translate(0.0976562)"/>
</clipPath>
</defs>
</svg>
